<svg xmlns="http://www.w3.org/2000/svg" xmlns:xlink="http://www.w3.org/1999/xlink" zoomAndPan="magnify" preserveAspectRatio="xMidYMid meet" version="1.0" viewBox="75.32 75.2 119.68 71.8"><defs><g/><clipPath id="ea6f4ea248"><path d="M 75.324219 75.195312 L 195 75.195312 L 195 147 L 75.324219 147 Z M 75.324219 75.195312 " clip-rule="nonzero"/></clipPath><clipPath id="eab86a3968"><path d="M 100.824219 75.195312 L 168.917969 75.195312 C 175.683594 75.195312 182.167969 77.882812 186.949219 82.664062 C 191.734375 87.449219 194.417969 93.933594 194.417969 100.695312 L 194.417969 120.804688 C 194.417969 127.566406 191.734375 134.054688 186.949219 138.835938 C 182.167969 143.617188 175.683594 146.304688 168.917969 146.304688 L 100.824219 146.304688 C 94.0625 146.304688 87.574219 143.617188 82.792969 138.835938 C 78.011719 134.054688 75.324219 127.566406 75.324219 120.804688 L 75.324219 100.695312 C 75.324219 93.933594 78.011719 87.449219 82.792969 82.664062 C 87.574219 77.882812 94.0625 75.195312 100.824219 75.195312 " clip-rule="nonzero"/></clipPath><clipPath id="12d9dee7ff"><path d="M 75.324219 75.429688 L 195 75.429688 L 195 147 L 75.324219 147 Z M 75.324219 75.429688 " clip-rule="nonzero"/></clipPath><clipPath id="6e903708f5"><path d="M 100.824219 75.429688 L 168.917969 75.429688 C 175.683594 75.429688 182.167969 78.117188 186.949219 82.898438 C 191.734375 87.679688 194.417969 94.167969 194.417969 100.929688 L 194.417969 121.039062 C 194.417969 127.800781 191.734375 134.289062 186.949219 139.070312 C 182.167969 143.851562 175.683594 146.539062 168.917969 146.539062 L 100.824219 146.539062 C 94.0625 146.539062 87.574219 143.851562 82.792969 139.070312 C 78.011719 134.289062 75.324219 127.800781 75.324219 121.039062 L 75.324219 100.929688 C 75.324219 94.167969 78.011719 87.679688 82.792969 82.898438 C 87.574219 78.117188 94.0625 75.429688 100.824219 75.429688 " clip-rule="nonzero"/></clipPath></defs><g clip-path="url(#ea6f4ea248)"><g clip-path="url(#eab86a3968)"><path fill="#4b0302" d="M 75.324219 75.195312 L 194.292969 75.195312 L 194.292969 146.070312 L 75.324219 146.070312 Z M 75.324219 75.195312 " fill-opacity="1" fill-rule="nonzero"/></g></g><g fill="#ffffff" fill-opacity="1"><g transform="translate(110.222429, 123.946895)"><g><path d="M 8.03125 0 L 3.25 0 L 3.25 -24.984375 L 8.90625 -24.984375 L 18.9375 -8.890625 L 19.375 -8.953125 L 19.375 -24.984375 L 24.125 -24.984375 L 24.125 0 L 19.078125 0 L 8.453125 -17.1875 L 8.03125 -17.125 Z M 8.03125 0 "/></g></g></g><g fill="#ffffff" fill-opacity="1"><g transform="translate(137.611331, 123.946895)"><g><path d="M 10.953125 0.359375 C 9.109375 0.359375 7.488281 -0.0195312 6.09375 -0.78125 C 4.695312 -1.539062 3.613281 -2.648438 2.84375 -4.109375 C 2.070312 -5.578125 1.6875 -7.347656 1.6875 -9.421875 C 1.6875 -11.492188 2.070312 -13.265625 2.84375 -14.734375 C 3.613281 -16.203125 4.695312 -17.3125 6.09375 -18.0625 C 7.488281 -18.820312 9.109375 -19.203125 10.953125 -19.203125 C 12.796875 -19.203125 14.414062 -18.820312 15.8125 -18.0625 C 17.207031 -17.3125 18.289062 -16.203125 19.0625 -14.734375 C 19.84375 -13.265625 20.234375 -11.492188 20.234375 -9.421875 C 20.234375 -7.347656 19.84375 -5.578125 19.0625 -4.109375 C 18.289062 -2.648438 17.207031 -1.539062 15.8125 -0.78125 C 14.414062 -0.0195312 12.796875 0.359375 10.953125 0.359375 Z M 10.953125 -3.65625 C 13.878906 -3.65625 15.34375 -5.578125 15.34375 -9.421875 C 15.34375 -11.410156 14.96875 -12.867188 14.21875 -13.796875 C 13.46875 -14.722656 12.378906 -15.1875 10.953125 -15.1875 C 8.023438 -15.1875 6.5625 -13.265625 6.5625 -9.421875 C 6.5625 -5.578125 8.023438 -3.65625 10.953125 -3.65625 Z M 10.953125 -3.65625 "/></g></g></g><g clip-path="url(#12d9dee7ff)"><g clip-path="url(#6e903708f5)"><path fill="#4b0302" d="M 75.324219 75.429688 L 194.292969 75.429688 L 194.292969 146.304688 L 75.324219 146.304688 Z M 75.324219 75.429688 " fill-opacity="1" fill-rule="nonzero"/></g></g><g fill="#ffffff" fill-opacity="1"><g transform="translate(110.222429, 124.180422)"><g><path d="M 8.03125 0 L 3.25 0 L 3.25 -24.984375 L 8.90625 -24.984375 L 18.9375 -8.890625 L 19.375 -8.953125 L 19.375 -24.984375 L 24.125 -24.984375 L 24.125 0 L 19.078125 0 L 8.453125 -17.1875 L 8.03125 -17.125 Z M 8.03125 0 "/></g></g></g><g fill="#ffffff" fill-opacity="1"><g transform="translate(137.611331, 124.180422)"><g><path d="M 10.953125 0.359375 C 9.109375 0.359375 7.488281 -0.0195312 6.09375 -0.78125 C 4.695312 -1.539062 3.613281 -2.648438 2.84375 -4.109375 C 2.070312 -5.578125 1.6875 -7.347656 1.6875 -9.421875 C 1.6875 -11.492188 2.070312 -13.265625 2.84375 -14.734375 C 3.613281 -16.203125 4.695312 -17.3125 6.09375 -18.0625 C 7.488281 -18.820312 9.109375 -19.203125 10.953125 -19.203125 C 12.796875 -19.203125 14.414062 -18.820312 15.8125 -18.0625 C 17.207031 -17.3125 18.289062 -16.203125 19.0625 -14.734375 C 19.84375 -13.265625 20.234375 -11.492188 20.234375 -9.421875 C 20.234375 -7.347656 19.84375 -5.578125 19.0625 -4.109375 C 18.289062 -2.648438 17.207031 -1.539062 15.8125 -0.78125 C 14.414062 -0.0195312 12.796875 0.359375 10.953125 0.359375 Z M 10.953125 -3.65625 C 13.878906 -3.65625 15.34375 -5.578125 15.34375 -9.421875 C 15.34375 -11.410156 14.96875 -12.867188 14.21875 -13.796875 C 13.46875 -14.722656 12.378906 -15.1875 10.953125 -15.1875 C 8.023438 -15.1875 6.5625 -13.265625 6.5625 -9.421875 C 6.5625 -5.578125 8.023438 -3.65625 10.953125 -3.65625 Z M 10.953125 -3.65625 "/></g></g></g></svg>