<svg xmlns="http://www.w3.org/2000/svg" xmlns:xlink="http://www.w3.org/1999/xlink" zoomAndPan="magnify" preserveAspectRatio="xMidYMid meet" version="1.0" viewBox="101.46 78.44 239.87 24.23"><defs><g/></defs><g fill="#000000" fill-opacity="1"><g transform="translate(101.837106, 98.499137)"><g><path d="M 7.515625 -9.785156 L 2.597656 -17.800781 L -0.375 -17.800781 L 6.242188 -7.113281 L 6.242188 0 L 8.789062 0 L 8.789062 -7.113281 L 15.476562 -17.800781 L 12.480469 -17.800781 Z M 7.515625 -9.785156 "/></g></g></g><g fill="#000000" fill-opacity="1"><g transform="translate(116.888757, 98.499137)"><g><path d="M 15.851562 -6.742188 C 15.851562 -11.382812 12.257812 -13.730469 8.613281 -13.730469 C 4.941406 -13.730469 1.296875 -11.410156 1.296875 -6.742188 C 1.296875 -2.097656 4.917969 0.25 8.539062 0.25 C 12.207031 0.25 15.851562 -2.070312 15.851562 -6.742188 Z M 3.746094 -6.742188 C 3.746094 -9.960938 6.167969 -11.558594 8.613281 -11.558594 C 11.007812 -11.558594 13.429688 -9.9375 13.429688 -6.742188 C 13.429688 -3.570312 11.007812 -1.945312 8.585938 -1.945312 C 6.167969 -1.945312 3.746094 -3.542969 3.746094 -6.742188 Z M 3.746094 -6.742188 "/></g></g></g><g fill="#000000" fill-opacity="1"><g transform="translate(134.211887, 98.499137)"><g><path d="M 11.832031 -1.773438 L 11.832031 0 L 14.15625 0 L 14.15625 -13.628906 L 11.707031 -13.628906 L 11.707031 -6.167969 C 11.707031 -3.792969 10.308594 -1.972656 7.738281 -1.972656 C 4.792969 -1.972656 4.144531 -3.71875 4.144531 -6.242188 L 4.144531 -13.628906 L 1.699219 -13.628906 L 1.699219 -6.242188 C 1.699219 -2.371094 3.46875 0.199219 7.5625 0.199219 C 9.3125 0.199219 10.835938 -0.300781 11.832031 -1.773438 Z M 11.832031 -1.773438 "/></g></g></g><g fill="#000000" fill-opacity="1"><g transform="translate(150.28695, 98.499137)"><g/></g></g><g fill="#000000" fill-opacity="1"><g transform="translate(156.50231, 98.499137)"><g><path d="M 15.101562 -5.144531 L 12.582031 -5.144531 C 11.984375 -2.996094 10.183594 -1.945312 8.339844 -1.945312 C 6.015625 -1.945312 3.71875 -3.519531 3.71875 -6.765625 C 3.71875 -9.984375 6.042969 -11.558594 8.3125 -11.558594 C 10.160156 -11.558594 11.984375 -10.511719 12.582031 -8.363281 L 15.101562 -8.363281 C 14.429688 -11.957031 11.359375 -13.730469 8.289062 -13.730469 C 4.769531 -13.730469 1.273438 -11.433594 1.273438 -6.765625 C 1.273438 -2.121094 4.742188 0.199219 8.238281 0.199219 C 11.308594 0.199219 14.429688 -1.523438 15.101562 -5.144531 Z M 15.101562 -5.144531 "/></g></g></g><g fill="#000000" fill-opacity="1"><g transform="translate(172.851951, 98.499137)"><g><path d="M 15.902344 0 L 15.902344 -13.503906 L 13.457031 -13.503906 L 13.480469 -11.707031 C 12.28125 -13.332031 10.261719 -13.730469 8.585938 -13.730469 C 4.019531 -13.730469 1.371094 -10.460938 1.371094 -6.816406 C 1.371094 -3.09375 3.917969 0.226562 8.636719 0.226562 C 10.308594 0.199219 12.480469 -0.347656 13.457031 -1.824219 L 13.457031 0 Z M 13.457031 -6.765625 C 13.457031 -3.519531 10.835938 -1.945312 8.585938 -1.945312 C 5.59375 -1.945312 3.820312 -4.269531 3.820312 -6.816406 C 3.820312 -9.484375 5.617188 -11.582031 8.585938 -11.582031 C 10.882812 -11.582031 13.457031 -9.984375 13.457031 -6.765625 Z M 13.457031 -6.765625 "/></g></g></g><g fill="#000000" fill-opacity="1"><g transform="translate(190.374773, 98.499137)"><g><path d="M 4.320312 -11.832031 L 4.320312 -13.503906 L 1.871094 -13.503906 L 1.871094 0 L 4.320312 0 L 4.320312 -7.339844 C 4.320312 -9.6875 5.714844 -11.535156 8.289062 -11.535156 C 11.234375 -11.535156 11.90625 -9.785156 11.90625 -7.238281 L 11.90625 0 L 14.328125 0 L 14.328125 -7.265625 C 14.328125 -11.132812 12.582031 -13.707031 8.460938 -13.707031 C 6.765625 -13.707031 5.316406 -13.28125 4.320312 -11.832031 Z M 4.320312 -11.832031 "/></g></g></g><g fill="#000000" fill-opacity="1"><g transform="translate(206.54969, 98.499137)"><g><path d="M 3.09375 -11.285156 L 3.09375 -17.476562 L 0.675781 -17.476562 L 0.675781 -11.285156 Z M 3.09375 -11.285156 "/></g></g></g><g fill="#000000" fill-opacity="1"><g transform="translate(211.017764, 98.499137)"><g><path d="M 5.066406 -13.503906 L 5.066406 -16.5 L 2.621094 -16.027344 L 2.621094 -13.503906 L 0.597656 -13.503906 L 0.597656 -11.558594 L 2.621094 -11.558594 L 2.621094 -3.96875 C 2.621094 -0.824219 4.34375 0.0742188 6.988281 0.0742188 C 7.339844 0.0742188 7.714844 0.0507812 8.113281 0.0234375 L 8.113281 -2.023438 C 7.738281 -1.996094 7.390625 -1.972656 7.089844 -1.972656 C 5.867188 -1.972656 5.066406 -2.347656 5.066406 -3.945312 L 5.066406 -11.558594 L 8.039062 -11.558594 L 8.039062 -13.503906 Z M 5.066406 -13.503906 "/></g></g></g><g fill="#000000" fill-opacity="1"><g transform="translate(219.604447, 98.499137)"><g/></g></g><g fill="#000000" fill-opacity="1"><g transform="translate(225.819812, 98.499137)"><g><path d="M 3.570312 -9.609375 C 3.570312 -11.007812 4.96875 -11.582031 6.464844 -11.582031 C 7.9375 -11.582031 9.210938 -11.007812 9.335938 -9.8125 L 11.757812 -9.8125 C 11.582031 -12.632812 9.210938 -13.78125 6.539062 -13.78125 C 3.917969 -13.78125 1.148438 -12.683594 1.148438 -9.5625 C 1.148438 -6.539062 4.019531 -5.792969 6.441406 -5.691406 C 7.613281 -5.640625 9.710938 -5.390625 9.710938 -3.894531 C 9.710938 -2.296875 7.789062 -1.898438 6.566406 -1.898438 C 4.894531 -1.898438 3.496094 -2.644531 3.394531 -4.144531 L 0.949219 -4.144531 C 1.125 -0.949219 3.71875 0.226562 6.515625 0.226562 C 9.0625 0.226562 12.15625 -0.699219 12.15625 -3.84375 C 12.15625 -6.914062 9.261719 -7.714844 6.714844 -7.886719 C 5.515625 -7.964844 3.570312 -7.914062 3.570312 -9.609375 Z M 3.570312 -9.609375 "/></g></g></g><g fill="#000000" fill-opacity="1"><g transform="translate(238.82464, 98.499137)"><g><path d="M 15.902344 0 L 15.902344 -13.503906 L 13.457031 -13.503906 L 13.480469 -11.707031 C 12.28125 -13.332031 10.261719 -13.730469 8.585938 -13.730469 C 4.019531 -13.730469 1.371094 -10.460938 1.371094 -6.816406 C 1.371094 -3.09375 3.917969 0.226562 8.636719 0.226562 C 10.308594 0.199219 12.480469 -0.347656 13.457031 -1.824219 L 13.457031 0 Z M 13.457031 -6.765625 C 13.457031 -3.519531 10.835938 -1.945312 8.585938 -1.945312 C 5.59375 -1.945312 3.820312 -4.269531 3.820312 -6.816406 C 3.820312 -9.484375 5.617188 -11.582031 8.585938 -11.582031 C 10.882812 -11.582031 13.457031 -9.984375 13.457031 -6.765625 Z M 13.457031 -6.765625 "/></g></g></g><g fill="#000000" fill-opacity="1"><g transform="translate(256.347452, 98.499137)"><g><path d="M 10.960938 -13.707031 L 8.636719 -7.6875 L 7.066406 -3.296875 L 5.542969 -7.714844 L 3.09375 -13.707031 L 0.5 -13.707031 L 5.765625 -0.699219 L 3.871094 4.167969 L 6.464844 4.167969 L 13.554688 -13.707031 Z M 10.960938 -13.707031 "/></g></g></g><g fill="#000000" fill-opacity="1"><g transform="translate(270.375685, 98.499137)"><g/></g></g><g fill="#000000" fill-opacity="1"><g transform="translate(276.591049, 98.499137)"><g><path d="M 2.148438 -17.476562 L 2.148438 0 L 4.667969 0 L 4.667969 -12.207031 L 13.105469 0 L 15.101562 0 L 15.101562 -17.476562 L 12.605469 -17.476562 L 12.605469 -5.167969 L 4.09375 -17.476562 Z M 2.148438 -17.476562 "/></g></g></g><g fill="#000000" fill-opacity="1"><g transform="translate(293.839299, 98.499137)"><g><path d="M 15.851562 -6.742188 C 15.851562 -11.382812 12.257812 -13.730469 8.613281 -13.730469 C 4.941406 -13.730469 1.296875 -11.410156 1.296875 -6.742188 C 1.296875 -2.097656 4.917969 0.25 8.539062 0.25 C 12.207031 0.25 15.851562 -2.070312 15.851562 -6.742188 Z M 3.746094 -6.742188 C 3.746094 -9.960938 6.167969 -11.558594 8.613281 -11.558594 C 11.007812 -11.558594 13.429688 -9.9375 13.429688 -6.742188 C 13.429688 -3.570312 11.007812 -1.945312 8.585938 -1.945312 C 6.167969 -1.945312 3.746094 -3.542969 3.746094 -6.742188 Z M 3.746094 -6.742188 "/></g></g></g><g fill="#000000" fill-opacity="1"><g transform="translate(311.162433, 98.499137)"><g/></g></g><g fill="#000000" fill-opacity="1"><g transform="translate(317.377798, 98.499137)"><g><path d="M 17.234375 -16.859375 L 18.171875 -15.515625 L 14.484375 -12.921875 L 13.546875 -14.28125 Z M 7.828125 -11.5625 C 7.828125 -12.050781 7.988281 -12.457031 8.3125 -12.78125 C 8.644531 -13.113281 9.050781 -13.28125 9.53125 -13.28125 C 10 -13.28125 10.398438 -13.113281 10.734375 -12.78125 C 11.066406 -12.457031 11.234375 -12.050781 11.234375 -11.5625 C 11.234375 -11.082031 11.066406 -10.675781 10.734375 -10.34375 C 10.398438 -10.007812 10 -9.84375 9.53125 -9.84375 C 9.050781 -9.84375 8.644531 -10.007812 8.3125 -10.34375 C 7.988281 -10.6875 7.828125 -11.09375 7.828125 -11.5625 Z M 14.875 -11.5625 C 14.875 -12.050781 15.039062 -12.457031 15.375 -12.78125 C 15.707031 -13.113281 16.109375 -13.28125 16.578125 -13.28125 C 17.046875 -13.28125 17.445312 -13.113281 17.78125 -12.78125 C 18.125 -12.457031 18.296875 -12.050781 18.296875 -11.5625 C 18.296875 -11.09375 18.125 -10.6875 17.78125 -10.34375 C 17.445312 -10.007812 17.046875 -9.84375 16.578125 -9.84375 C 16.097656 -9.84375 15.691406 -10.007812 15.359375 -10.34375 C 15.035156 -10.6875 14.875 -11.09375 14.875 -11.5625 Z M 8.796875 -16.859375 L 12.5 -14.28125 L 11.5625 -12.921875 L 7.859375 -15.515625 Z M 2.078125 -9.09375 C 2.078125 -12.125 3.144531 -14.707031 5.28125 -16.84375 C 7.414062 -18.988281 9.992188 -20.0625 13.015625 -20.0625 C 16.046875 -20.0625 18.625 -18.988281 20.75 -16.84375 C 22.882812 -14.707031 23.953125 -12.125 23.953125 -9.09375 C 23.953125 -6.070312 22.882812 -3.492188 20.75 -1.359375 C 18.625 0.765625 16.046875 1.828125 13.015625 1.828125 C 9.992188 1.828125 7.414062 0.765625 5.28125 -1.359375 C 3.144531 -3.492188 2.078125 -6.070312 2.078125 -9.09375 Z M 3.71875 -9.09375 C 3.71875 -6.53125 4.625 -4.34375 6.4375 -2.53125 C 8.257812 -0.71875 10.453125 0.1875 13.015625 0.1875 C 15.597656 0.1875 17.789062 -0.71875 19.59375 -2.53125 C 21.40625 -4.34375 22.3125 -6.53125 22.3125 -9.09375 C 22.3125 -11.664062 21.40625 -13.863281 19.59375 -15.6875 C 17.789062 -17.507812 15.597656 -18.421875 13.015625 -18.421875 C 10.453125 -18.421875 8.257812 -17.507812 6.4375 -15.6875 C 4.625 -13.863281 3.71875 -11.664062 3.71875 -9.09375 Z M 6.59375 -4.046875 C 6.894531 -4.503906 7.25 -4.941406 7.65625 -5.359375 C 9.132812 -6.828125 10.921875 -7.5625 13.015625 -7.5625 C 15.117188 -7.5625 16.910156 -6.828125 18.390625 -5.359375 C 18.796875 -4.941406 19.148438 -4.503906 19.453125 -4.046875 L 18.046875 -3.171875 C 17.816406 -3.523438 17.539062 -3.863281 17.21875 -4.1875 C 16.0625 -5.332031 14.660156 -5.90625 13.015625 -5.90625 C 11.378906 -5.914062 9.984375 -5.34375 8.828125 -4.1875 C 8.503906 -3.875 8.226562 -3.539062 8 -3.1875 Z M 6.59375 -4.046875 "/></g></g></g><g fill="#000000" fill-opacity="1"><g transform="translate(101.837106, 98.499137)"><g><path d="M 7.515625 -9.785156 L 2.597656 -17.800781 L -0.375 -17.800781 L 6.242188 -7.113281 L 6.242188 0 L 8.789062 0 L 8.789062 -7.113281 L 15.476562 -17.800781 L 12.480469 -17.800781 Z M 7.515625 -9.785156 "/></g></g></g><g fill="#000000" fill-opacity="1"><g transform="translate(116.888757, 98.499137)"><g><path d="M 15.851562 -6.742188 C 15.851562 -11.382812 12.257812 -13.730469 8.613281 -13.730469 C 4.941406 -13.730469 1.296875 -11.410156 1.296875 -6.742188 C 1.296875 -2.097656 4.917969 0.25 8.539062 0.25 C 12.207031 0.25 15.851562 -2.070312 15.851562 -6.742188 Z M 3.746094 -6.742188 C 3.746094 -9.960938 6.167969 -11.558594 8.613281 -11.558594 C 11.007812 -11.558594 13.429688 -9.9375 13.429688 -6.742188 C 13.429688 -3.570312 11.007812 -1.945312 8.585938 -1.945312 C 6.167969 -1.945312 3.746094 -3.542969 3.746094 -6.742188 Z M 3.746094 -6.742188 "/></g></g></g><g fill="#000000" fill-opacity="1"><g transform="translate(134.211887, 98.499137)"><g><path d="M 11.832031 -1.773438 L 11.832031 0 L 14.15625 0 L 14.15625 -13.628906 L 11.707031 -13.628906 L 11.707031 -6.167969 C 11.707031 -3.792969 10.308594 -1.972656 7.738281 -1.972656 C 4.792969 -1.972656 4.144531 -3.71875 4.144531 -6.242188 L 4.144531 -13.628906 L 1.699219 -13.628906 L 1.699219 -6.242188 C 1.699219 -2.371094 3.46875 0.199219 7.5625 0.199219 C 9.3125 0.199219 10.835938 -0.300781 11.832031 -1.773438 Z M 11.832031 -1.773438 "/></g></g></g><g fill="#000000" fill-opacity="1"><g transform="translate(150.28695, 98.499137)"><g/></g></g><g fill="#000000" fill-opacity="1"><g transform="translate(156.50231, 98.499137)"><g><path d="M 15.101562 -5.144531 L 12.582031 -5.144531 C 11.984375 -2.996094 10.183594 -1.945312 8.339844 -1.945312 C 6.015625 -1.945312 3.71875 -3.519531 3.71875 -6.765625 C 3.71875 -9.984375 6.042969 -11.558594 8.3125 -11.558594 C 10.160156 -11.558594 11.984375 -10.511719 12.582031 -8.363281 L 15.101562 -8.363281 C 14.429688 -11.957031 11.359375 -13.730469 8.289062 -13.730469 C 4.769531 -13.730469 1.273438 -11.433594 1.273438 -6.765625 C 1.273438 -2.121094 4.742188 0.199219 8.238281 0.199219 C 11.308594 0.199219 14.429688 -1.523438 15.101562 -5.144531 Z M 15.101562 -5.144531 "/></g></g></g><g fill="#000000" fill-opacity="1"><g transform="translate(172.851951, 98.499137)"><g><path d="M 15.902344 0 L 15.902344 -13.503906 L 13.457031 -13.503906 L 13.480469 -11.707031 C 12.28125 -13.332031 10.261719 -13.730469 8.585938 -13.730469 C 4.019531 -13.730469 1.371094 -10.460938 1.371094 -6.816406 C 1.371094 -3.09375 3.917969 0.226562 8.636719 0.226562 C 10.308594 0.199219 12.480469 -0.347656 13.457031 -1.824219 L 13.457031 0 Z M 13.457031 -6.765625 C 13.457031 -3.519531 10.835938 -1.945312 8.585938 -1.945312 C 5.59375 -1.945312 3.820312 -4.269531 3.820312 -6.816406 C 3.820312 -9.484375 5.617188 -11.582031 8.585938 -11.582031 C 10.882812 -11.582031 13.457031 -9.984375 13.457031 -6.765625 Z M 13.457031 -6.765625 "/></g></g></g><g fill="#000000" fill-opacity="1"><g transform="translate(190.374773, 98.499137)"><g><path d="M 4.320312 -11.832031 L 4.320312 -13.503906 L 1.871094 -13.503906 L 1.871094 0 L 4.320312 0 L 4.320312 -7.339844 C 4.320312 -9.6875 5.714844 -11.535156 8.289062 -11.535156 C 11.234375 -11.535156 11.90625 -9.785156 11.90625 -7.238281 L 11.90625 0 L 14.328125 0 L 14.328125 -7.265625 C 14.328125 -11.132812 12.582031 -13.707031 8.460938 -13.707031 C 6.765625 -13.707031 5.316406 -13.28125 4.320312 -11.832031 Z M 4.320312 -11.832031 "/></g></g></g><g fill="#000000" fill-opacity="1"><g transform="translate(206.54969, 98.499137)"><g><path d="M 3.09375 -11.285156 L 3.09375 -17.476562 L 0.675781 -17.476562 L 0.675781 -11.285156 Z M 3.09375 -11.285156 "/></g></g></g><g fill="#000000" fill-opacity="1"><g transform="translate(211.017764, 98.499137)"><g><path d="M 5.066406 -13.503906 L 5.066406 -16.5 L 2.621094 -16.027344 L 2.621094 -13.503906 L 0.597656 -13.503906 L 0.597656 -11.558594 L 2.621094 -11.558594 L 2.621094 -3.96875 C 2.621094 -0.824219 4.34375 0.0742188 6.988281 0.0742188 C 7.339844 0.0742188 7.714844 0.0507812 8.113281 0.0234375 L 8.113281 -2.023438 C 7.738281 -1.996094 7.390625 -1.972656 7.089844 -1.972656 C 5.867188 -1.972656 5.066406 -2.347656 5.066406 -3.945312 L 5.066406 -11.558594 L 8.039062 -11.558594 L 8.039062 -13.503906 Z M 5.066406 -13.503906 "/></g></g></g><g fill="#000000" fill-opacity="1"><g transform="translate(219.604447, 98.499137)"><g/></g></g><g fill="#000000" fill-opacity="1"><g transform="translate(225.819812, 98.499137)"><g><path d="M 3.570312 -9.609375 C 3.570312 -11.007812 4.96875 -11.582031 6.464844 -11.582031 C 7.9375 -11.582031 9.210938 -11.007812 9.335938 -9.8125 L 11.757812 -9.8125 C 11.582031 -12.632812 9.210938 -13.78125 6.539062 -13.78125 C 3.917969 -13.78125 1.148438 -12.683594 1.148438 -9.5625 C 1.148438 -6.539062 4.019531 -5.792969 6.441406 -5.691406 C 7.613281 -5.640625 9.710938 -5.390625 9.710938 -3.894531 C 9.710938 -2.296875 7.789062 -1.898438 6.566406 -1.898438 C 4.894531 -1.898438 3.496094 -2.644531 3.394531 -4.144531 L 0.949219 -4.144531 C 1.125 -0.949219 3.71875 0.226562 6.515625 0.226562 C 9.0625 0.226562 12.15625 -0.699219 12.15625 -3.84375 C 12.15625 -6.914062 9.261719 -7.714844 6.714844 -7.886719 C 5.515625 -7.964844 3.570312 -7.914062 3.570312 -9.609375 Z M 3.570312 -9.609375 "/></g></g></g><g fill="#000000" fill-opacity="1"><g transform="translate(238.82464, 98.499137)"><g><path d="M 15.902344 0 L 15.902344 -13.503906 L 13.457031 -13.503906 L 13.480469 -11.707031 C 12.28125 -13.332031 10.261719 -13.730469 8.585938 -13.730469 C 4.019531 -13.730469 1.371094 -10.460938 1.371094 -6.816406 C 1.371094 -3.09375 3.917969 0.226562 8.636719 0.226562 C 10.308594 0.199219 12.480469 -0.347656 13.457031 -1.824219 L 13.457031 0 Z M 13.457031 -6.765625 C 13.457031 -3.519531 10.835938 -1.945312 8.585938 -1.945312 C 5.59375 -1.945312 3.820312 -4.269531 3.820312 -6.816406 C 3.820312 -9.484375 5.617188 -11.582031 8.585938 -11.582031 C 10.882812 -11.582031 13.457031 -9.984375 13.457031 -6.765625 Z M 13.457031 -6.765625 "/></g></g></g><g fill="#000000" fill-opacity="1"><g transform="translate(256.347452, 98.499137)"><g><path d="M 10.960938 -13.707031 L 8.636719 -7.6875 L 7.066406 -3.296875 L 5.542969 -7.714844 L 3.09375 -13.707031 L 0.5 -13.707031 L 5.765625 -0.699219 L 3.871094 4.167969 L 6.464844 4.167969 L 13.554688 -13.707031 Z M 10.960938 -13.707031 "/></g></g></g><g fill="#000000" fill-opacity="1"><g transform="translate(270.375685, 98.499137)"><g/></g></g><g fill="#000000" fill-opacity="1"><g transform="translate(276.591049, 98.499137)"><g><path d="M 2.148438 -17.476562 L 2.148438 0 L 4.667969 0 L 4.667969 -12.207031 L 13.105469 0 L 15.101562 0 L 15.101562 -17.476562 L 12.605469 -17.476562 L 12.605469 -5.167969 L 4.09375 -17.476562 Z M 2.148438 -17.476562 "/></g></g></g><g fill="#000000" fill-opacity="1"><g transform="translate(293.839299, 98.499137)"><g><path d="M 15.851562 -6.742188 C 15.851562 -11.382812 12.257812 -13.730469 8.613281 -13.730469 C 4.941406 -13.730469 1.296875 -11.410156 1.296875 -6.742188 C 1.296875 -2.097656 4.917969 0.25 8.539062 0.25 C 12.207031 0.25 15.851562 -2.070312 15.851562 -6.742188 Z M 3.746094 -6.742188 C 3.746094 -9.960938 6.167969 -11.558594 8.613281 -11.558594 C 11.007812 -11.558594 13.429688 -9.9375 13.429688 -6.742188 C 13.429688 -3.570312 11.007812 -1.945312 8.585938 -1.945312 C 6.167969 -1.945312 3.746094 -3.542969 3.746094 -6.742188 Z M 3.746094 -6.742188 "/></g></g></g><g fill="#000000" fill-opacity="1"><g transform="translate(311.162433, 98.499137)"><g/></g></g><g fill="#000000" fill-opacity="1"><g transform="translate(317.377798, 98.499137)"><g><path d="M 17.234375 -16.859375 L 18.171875 -15.515625 L 14.484375 -12.921875 L 13.546875 -14.28125 Z M 7.828125 -11.5625 C 7.828125 -12.050781 7.988281 -12.457031 8.3125 -12.78125 C 8.644531 -13.113281 9.050781 -13.28125 9.53125 -13.28125 C 10 -13.28125 10.398438 -13.113281 10.734375 -12.78125 C 11.066406 -12.457031 11.234375 -12.050781 11.234375 -11.5625 C 11.234375 -11.082031 11.066406 -10.675781 10.734375 -10.34375 C 10.398438 -10.007812 10 -9.84375 9.53125 -9.84375 C 9.050781 -9.84375 8.644531 -10.007812 8.3125 -10.34375 C 7.988281 -10.6875 7.828125 -11.09375 7.828125 -11.5625 Z M 14.875 -11.5625 C 14.875 -12.050781 15.039062 -12.457031 15.375 -12.78125 C 15.707031 -13.113281 16.109375 -13.28125 16.578125 -13.28125 C 17.046875 -13.28125 17.445312 -13.113281 17.78125 -12.78125 C 18.125 -12.457031 18.296875 -12.050781 18.296875 -11.5625 C 18.296875 -11.09375 18.125 -10.6875 17.78125 -10.34375 C 17.445312 -10.007812 17.046875 -9.84375 16.578125 -9.84375 C 16.097656 -9.84375 15.691406 -10.007812 15.359375 -10.34375 C 15.035156 -10.6875 14.875 -11.09375 14.875 -11.5625 Z M 8.796875 -16.859375 L 12.5 -14.28125 L 11.5625 -12.921875 L 7.859375 -15.515625 Z M 2.078125 -9.09375 C 2.078125 -12.125 3.144531 -14.707031 5.28125 -16.84375 C 7.414062 -18.988281 9.992188 -20.0625 13.015625 -20.0625 C 16.046875 -20.0625 18.625 -18.988281 20.75 -16.84375 C 22.882812 -14.707031 23.953125 -12.125 23.953125 -9.09375 C 23.953125 -6.070312 22.882812 -3.492188 20.75 -1.359375 C 18.625 0.765625 16.046875 1.828125 13.015625 1.828125 C 9.992188 1.828125 7.414062 0.765625 5.28125 -1.359375 C 3.144531 -3.492188 2.078125 -6.070312 2.078125 -9.09375 Z M 3.71875 -9.09375 C 3.71875 -6.53125 4.625 -4.34375 6.4375 -2.53125 C 8.257812 -0.71875 10.453125 0.1875 13.015625 0.1875 C 15.597656 0.1875 17.789062 -0.71875 19.59375 -2.53125 C 21.40625 -4.34375 22.3125 -6.53125 22.3125 -9.09375 C 22.3125 -11.664062 21.40625 -13.863281 19.59375 -15.6875 C 17.789062 -17.507812 15.597656 -18.421875 13.015625 -18.421875 C 10.453125 -18.421875 8.257812 -17.507812 6.4375 -15.6875 C 4.625 -13.863281 3.71875 -11.664062 3.71875 -9.09375 Z M 6.59375 -4.046875 C 6.894531 -4.503906 7.25 -4.941406 7.65625 -5.359375 C 9.132812 -6.828125 10.921875 -7.5625 13.015625 -7.5625 C 15.117188 -7.5625 16.910156 -6.828125 18.390625 -5.359375 C 18.796875 -4.941406 19.148438 -4.503906 19.453125 -4.046875 L 18.046875 -3.171875 C 17.816406 -3.523438 17.539062 -3.863281 17.21875 -4.1875 C 16.0625 -5.332031 14.660156 -5.90625 13.015625 -5.90625 C 11.378906 -5.914062 9.984375 -5.34375 8.828125 -4.1875 C 8.503906 -3.875 8.226562 -3.539062 8 -3.1875 Z M 6.59375 -4.046875 "/></g></g></g></svg>