<svg xmlns="http://www.w3.org/2000/svg" xmlns:xlink="http://www.w3.org/1999/xlink" zoomAndPan="magnify" preserveAspectRatio="xMidYMid meet" version="1.0" viewBox="78.05 89.01 413.47 231.51"><defs><g/></defs><g fill="#000000" fill-opacity="1"><g transform="translate(75.526006, 131.933121)"><g><path d="M 26.246094 -31.242188 L 32.265625 -31.484375 C 31.183594 -39.191406 24.441406 -42.5625 17.941406 -42.5625 C 13.0625 -42.5625 8.007812 -40.636719 5.175781 -36.964844 C 3.613281 -34.917969 2.828125 -32.507812 2.828125 -29.980469 C 2.828125 -29.679688 2.890625 -29.316406 2.890625 -28.957031 L 2.890625 -29.015625 C 3.550781 -20.226562 11.257812 -18.78125 17.820312 -18.121094 C 22.035156 -17.699219 26.367188 -17.15625 27.089844 -13.964844 C 27.210938 -13.425781 27.269531 -12.941406 27.269531 -12.523438 C 27.269531 -8.1875 22.335938 -5.660156 17.820312 -5.660156 C 13.90625 -5.660156 9.152344 -7.707031 8.730469 -11.617188 L 8.730469 -11.378906 L 8.667969 -12.28125 L 2.527344 -12.160156 L 2.589844 -11.015625 C 3.371094 -3.492188 11.257812 0.359375 17.757812 0.359375 C 25.34375 0.359375 33.410156 -4.335938 33.410156 -12.460938 C 33.410156 -13.304688 33.289062 -14.328125 33.109375 -15.230469 C 31.484375 -21.972656 24.320312 -23.476562 18.542969 -24.199219 C 13.847656 -24.621094 8.96875 -25.222656 8.96875 -30.101562 C 8.96875 -31.304688 9.269531 -32.507812 9.992188 -33.410156 C 11.738281 -35.636719 14.929688 -36.601562 17.820312 -36.601562 C 21.429688 -36.601562 25.40625 -34.976562 26.246094 -31.242188 Z M 26.246094 -31.242188 "/></g></g></g><g fill="#000000" fill-opacity="1"><g transform="translate(111.34126, 131.933121)"><g><path d="M 36.480469 -17.699219 C 35.820312 -27.933594 27.871094 -33.050781 19.804688 -33.050781 C 11.195312 -33.050781 2.890625 -27.453125 2.890625 -16.253906 C 2.890625 -5.058594 11.316406 0.601562 19.683594 0.601562 C 26.367188 0.601562 33.050781 -2.949219 35.519531 -10.054688 L 29.4375 -10.054688 C 27.511719 -6.382812 23.777344 -4.636719 19.746094 -4.636719 C 14.871094 -4.636719 8.789062 -8.488281 8.789062 -14.871094 L 36.359375 -14.871094 C 36.480469 -15.410156 36.542969 -16.011719 36.542969 -16.675781 C 36.542969 -17.035156 36.542969 -17.335938 36.480469 -17.699219 Z M 30.28125 -19.746094 L 9.03125 -19.746094 C 10.234375 -25.523438 15.050781 -27.871094 19.804688 -27.871094 C 24.5 -27.871094 29.136719 -25.585938 30.28125 -19.746094 Z M 30.28125 -19.746094 "/></g></g></g><g fill="#000000" fill-opacity="1"><g transform="translate(151.069101, 131.933121)"><g><path d="M 36.480469 -17.699219 C 35.820312 -27.933594 27.871094 -33.050781 19.804688 -33.050781 C 11.195312 -33.050781 2.890625 -27.453125 2.890625 -16.253906 C 2.890625 -5.058594 11.316406 0.601562 19.683594 0.601562 C 26.367188 0.601562 33.050781 -2.949219 35.519531 -10.054688 L 29.4375 -10.054688 C 27.511719 -6.382812 23.777344 -4.636719 19.746094 -4.636719 C 14.871094 -4.636719 8.789062 -8.488281 8.789062 -14.871094 L 36.359375 -14.871094 C 36.480469 -15.410156 36.542969 -16.011719 36.542969 -16.675781 C 36.542969 -17.035156 36.542969 -17.335938 36.480469 -17.699219 Z M 30.28125 -19.746094 L 9.03125 -19.746094 C 10.234375 -25.523438 15.050781 -27.871094 19.804688 -27.871094 C 24.5 -27.871094 29.136719 -25.585938 30.28125 -19.746094 Z M 30.28125 -19.746094 "/></g></g></g><g fill="#000000" fill-opacity="1"><g transform="translate(190.796942, 131.933121)"><g/></g></g><g fill="#000000" fill-opacity="1"><g transform="translate(205.785176, 131.933121)"><g><path d="M 18.121094 -23.597656 L 6.261719 -42.921875 L -0.902344 -42.921875 L 15.050781 -17.15625 L 15.050781 0 L 21.191406 0 L 21.191406 -17.15625 L 37.324219 -42.921875 L 30.101562 -42.921875 Z M 18.121094 -23.597656 "/></g></g></g><g fill="#000000" fill-opacity="1"><g transform="translate(242.081974, 131.933121)"><g><path d="M 38.226562 -16.253906 C 38.226562 -27.453125 29.558594 -33.109375 20.769531 -33.109375 C 11.917969 -33.109375 3.128906 -27.511719 3.128906 -16.253906 C 3.128906 -5.058594 11.859375 0.601562 20.589844 0.601562 C 29.4375 0.601562 38.226562 -4.996094 38.226562 -16.253906 Z M 9.03125 -16.253906 C 9.03125 -24.019531 14.871094 -27.871094 20.769531 -27.871094 C 26.546875 -27.871094 32.386719 -23.960938 32.386719 -16.253906 C 32.386719 -8.609375 26.546875 -4.695312 20.707031 -4.695312 C 14.871094 -4.695312 9.03125 -8.546875 9.03125 -16.253906 Z M 9.03125 -16.253906 "/></g></g></g><g fill="#000000" fill-opacity="1"><g transform="translate(283.856406, 131.933121)"><g><path d="M 28.535156 -4.273438 L 28.535156 0 L 34.132812 0 L 34.132812 -32.871094 L 28.234375 -32.871094 L 28.234375 -14.871094 C 28.234375 -9.152344 24.863281 -4.753906 18.660156 -4.753906 C 11.558594 -4.753906 9.992188 -8.96875 9.992188 -15.050781 L 9.992188 -32.871094 L 4.09375 -32.871094 L 4.09375 -15.050781 C 4.09375 -5.71875 8.367188 0.480469 18.242188 0.480469 C 22.453125 0.480469 26.125 -0.722656 28.535156 -4.273438 Z M 28.535156 -4.273438 "/></g></g></g><g fill="#000000" fill-opacity="1"><g transform="translate(322.621159, 131.933121)"><g/></g></g><g fill="#000000" fill-opacity="1"><g transform="translate(337.609404, 131.933121)"><g><path d="M 26.246094 -31.242188 L 32.265625 -31.484375 C 31.183594 -39.191406 24.441406 -42.5625 17.941406 -42.5625 C 13.0625 -42.5625 8.007812 -40.636719 5.175781 -36.964844 C 3.613281 -34.917969 2.828125 -32.507812 2.828125 -29.980469 C 2.828125 -29.679688 2.890625 -29.316406 2.890625 -28.957031 L 2.890625 -29.015625 C 3.550781 -20.226562 11.257812 -18.78125 17.820312 -18.121094 C 22.035156 -17.699219 26.367188 -17.15625 27.089844 -13.964844 C 27.210938 -13.425781 27.269531 -12.941406 27.269531 -12.523438 C 27.269531 -8.1875 22.335938 -5.660156 17.820312 -5.660156 C 13.90625 -5.660156 9.152344 -7.707031 8.730469 -11.617188 L 8.730469 -11.378906 L 8.667969 -12.28125 L 2.527344 -12.160156 L 2.589844 -11.015625 C 3.371094 -3.492188 11.257812 0.359375 17.757812 0.359375 C 25.34375 0.359375 33.410156 -4.335938 33.410156 -12.460938 C 33.410156 -13.304688 33.289062 -14.328125 33.109375 -15.230469 C 31.484375 -21.972656 24.320312 -23.476562 18.542969 -24.199219 C 13.847656 -24.621094 8.96875 -25.222656 8.96875 -30.101562 C 8.96875 -31.304688 9.269531 -32.507812 9.992188 -33.410156 C 11.738281 -35.636719 14.929688 -36.601562 17.820312 -36.601562 C 21.429688 -36.601562 25.40625 -34.976562 26.246094 -31.242188 Z M 26.246094 -31.242188 "/></g></g></g><g fill="#000000" fill-opacity="1"><g transform="translate(373.424646, 131.933121)"><g><path d="M 38.226562 -16.253906 C 38.226562 -27.453125 29.558594 -33.109375 20.769531 -33.109375 C 11.917969 -33.109375 3.128906 -27.511719 3.128906 -16.253906 C 3.128906 -5.058594 11.859375 0.601562 20.589844 0.601562 C 29.4375 0.601562 38.226562 -4.996094 38.226562 -16.253906 Z M 9.03125 -16.253906 C 9.03125 -24.019531 14.871094 -27.871094 20.769531 -27.871094 C 26.546875 -27.871094 32.386719 -23.960938 32.386719 -16.253906 C 32.386719 -8.609375 26.546875 -4.695312 20.707031 -4.695312 C 14.871094 -4.695312 9.03125 -8.546875 9.03125 -16.253906 Z M 9.03125 -16.253906 "/></g></g></g><g fill="#000000" fill-opacity="1"><g transform="translate(415.199089, 131.933121)"><g><path d="M 38.226562 -16.253906 C 38.226562 -27.453125 29.558594 -33.109375 20.769531 -33.109375 C 11.917969 -33.109375 3.128906 -27.511719 3.128906 -16.253906 C 3.128906 -5.058594 11.859375 0.601562 20.589844 0.601562 C 29.4375 0.601562 38.226562 -4.996094 38.226562 -16.253906 Z M 9.03125 -16.253906 C 9.03125 -24.019531 14.871094 -27.871094 20.769531 -27.871094 C 26.546875 -27.871094 32.386719 -23.960938 32.386719 -16.253906 C 32.386719 -8.609375 26.546875 -4.695312 20.707031 -4.695312 C 14.871094 -4.695312 9.03125 -8.546875 9.03125 -16.253906 Z M 9.03125 -16.253906 "/></g></g></g><g fill="#000000" fill-opacity="1"><g transform="translate(456.973532, 131.933121)"><g><path d="M 10.414062 -28.535156 L 10.414062 -32.566406 L 4.515625 -32.566406 L 4.515625 0 L 10.414062 0 L 10.414062 -17.699219 C 10.414062 -23.359375 13.785156 -27.8125 19.988281 -27.8125 C 27.089844 -27.8125 28.714844 -23.597656 28.714844 -17.457031 L 28.714844 0 L 34.554688 0 L 34.554688 -17.519531 C 34.554688 -26.847656 30.339844 -33.050781 20.40625 -33.050781 C 16.3125 -33.050781 12.824219 -32.027344 10.414062 -28.535156 Z M 10.414062 -28.535156 "/></g></g></g><g fill="#000000" fill-opacity="1"><g transform="translate(244.907181, 215.909069)"><g><path d="M 5.175781 0 L 11.257812 0 L 11.257812 -29.679688 L 22.273438 -13.304688 L 25.707031 -13.304688 L 36.722656 -29.679688 L 36.722656 0 L 42.742188 0 L 42.742188 -42.140625 L 37.925781 -42.140625 L 24.019531 -21.671875 L 10.113281 -42.140625 L 5.175781 -42.140625 Z M 5.175781 0 "/></g></g></g><g fill="#000000" fill-opacity="1"><g transform="translate(292.761169, 215.909069)"><g><path d="M 26.429688 -33.050781 L 20.828125 -18.542969 L 17.035156 -7.945312 L 13.363281 -18.601562 L 7.464844 -33.050781 L 1.203125 -33.050781 L 13.90625 -1.6875 L 9.332031 10.054688 L 15.59375 10.054688 L 32.6875 -33.050781 Z M 26.429688 -33.050781 "/></g></g></g><g fill="#000000" fill-opacity="1"><g transform="translate(118.730335, 319.64987)"><g><path d="M 62.378906 -68.070312 C 61.320312 -68.070312 60.257812 -67.585938 59.296875 -66.71875 C 46.570312 -55.246094 38.277344 -36.15625 32.105469 -13.113281 C 30.949219 -21.5 29.503906 -34.324219 27.863281 -53.125 C 26.996094 -62.957031 22.273438 -68.359375 14.75 -68.359375 C 8.964844 -68.359375 4.339844 -64.5 2.507812 -60.933594 C 2.023438 -59.96875 1.734375 -59.007812 1.734375 -58.136719 C 1.734375 -56.5 2.796875 -55.632812 4.050781 -55.632812 C 5.011719 -55.632812 6.074219 -56.113281 6.75 -57.269531 C 9.0625 -61.222656 11.472656 -62.285156 14.269531 -62.285156 C 18.222656 -62.285156 20.535156 -59.101562 21.113281 -53.222656 C 23.332031 -30.757812 24.683594 -15.523438 27.476562 -3.277344 C 28.152344 -0.289062 29.792969 0.867188 31.71875 0.867188 C 33.457031 0.867188 34.710938 -0.191406 35.382812 -2.699219 C 41.363281 -24.777344 49.652344 -48.691406 63.730469 -61.707031 C 64.984375 -62.863281 65.5625 -64.019531 65.5625 -64.984375 C 65.5625 -66.71875 64.210938 -68.070312 62.378906 -68.070312 Z M 62.378906 -68.070312 "/></g></g></g><g fill="#000000" fill-opacity="1"><g transform="translate(171.65725, 319.64987)"><g><path d="M 47.53125 -22.464844 C 42.90625 -10.992188 39.820312 -5.59375 37.3125 -5.59375 C 35.289062 -5.59375 33.746094 -7.230469 33.746094 -12.824219 C 33.746094 -22.273438 35.09375 -33.550781 35.09375 -35.578125 C 35.09375 -37.601562 33.746094 -38.855469 32.105469 -38.855469 C 30.46875 -38.855469 29.214844 -37.601562 28.539062 -35.671875 C 26.03125 -37.503906 22.945312 -38.375 20.441406 -38.375 C 11.378906 -38.375 2.3125 -29.214844 2.3125 -15.8125 C 2.3125 -5.496094 8.097656 0.386719 15.523438 0.386719 C 19.863281 0.386719 24.199219 -1.640625 28.058594 -7.519531 C 29.503906 -2.21875 32.589844 0.386719 36.925781 0.386719 C 42.519531 0.386719 46.859375 -5.976562 52.160156 -20.441406 C 52.351562 -20.921875 52.449219 -21.402344 52.449219 -21.789062 C 52.449219 -23.332031 51.292969 -24.394531 50.039062 -24.394531 C 49.074219 -24.394531 48.109375 -23.816406 47.53125 -22.464844 Z M 16.488281 -5.59375 C 11.957031 -5.59375 8.675781 -8.871094 8.675781 -16.101562 C 8.675781 -26.128906 15.136719 -32.683594 21.597656 -32.683594 C 24.394531 -32.683594 27.1875 -31.140625 28.058594 -29.792969 C 28.25 -14.65625 23.234375 -5.59375 16.488281 -5.59375 Z M 16.488281 -5.59375 "/></g></g></g><g fill="#000000" fill-opacity="1"><g transform="translate(216.004023, 319.64987)"><g><path d="M 29.886719 -22.464844 C 27.671875 -16.582031 22.273438 -6.074219 17.160156 -6.074219 C 13.402344 -6.074219 10.21875 -10.992188 9.546875 -20.632812 C 22.5625 -34.613281 27.671875 -46.570312 27.671875 -57.269531 C 27.671875 -63.921875 24.296875 -67.78125 19.476562 -67.78125 C 8.582031 -67.78125 2.988281 -52.933594 2.988281 -24.972656 C 2.988281 -8.097656 8.871094 -0.0976562 17.160156 -0.0976562 C 23.140625 -0.0976562 28.828125 -5.785156 34.515625 -20.441406 C 34.710938 -20.921875 34.804688 -21.402344 34.804688 -21.789062 C 34.804688 -23.429688 33.648438 -24.585938 32.394531 -24.585938 C 31.429688 -24.585938 30.46875 -23.910156 29.886719 -22.464844 Z M 18.609375 -61.800781 C 20.246094 -61.800781 21.308594 -60.546875 21.308594 -57.269531 C 21.308594 -48.691406 17.066406 -38.757812 9.351562 -28.925781 C 9.835938 -48.015625 13.59375 -61.800781 18.609375 -61.800781 Z M 18.609375 -61.800781 "/></g></g></g><g fill="#000000" fill-opacity="1"><g transform="translate(242.708498, 319.64987)"><g><path d="M 40.011719 -22.464844 C 35.480469 -10.992188 29.597656 -5.304688 20.535156 -5.304688 C 14.367188 -5.304688 9.351562 -9.546875 8.871094 -17.644531 C 11.378906 -16.292969 14.65625 -15.425781 18.222656 -15.425781 C 26.707031 -15.425781 32.203125 -20.921875 32.203125 -28.058594 C 32.203125 -34.515625 27.285156 -39.242188 19.863281 -39.242188 C 8.773438 -39.242188 2.410156 -29.214844 2.410156 -18.898438 C 2.410156 -6.074219 10.507812 0.675781 20.152344 0.675781 C 31.140625 0.675781 39.335938 -6.265625 44.640625 -20.441406 C 44.832031 -21.019531 44.929688 -21.5 44.929688 -21.984375 C 44.929688 -23.621094 43.773438 -24.585938 42.617188 -24.585938 C 41.652344 -24.585938 40.589844 -23.910156 40.011719 -22.464844 Z M 19.863281 -33.261719 C 23.910156 -33.261719 25.9375 -30.757812 25.9375 -27.960938 C 25.9375 -24.007812 23.042969 -20.730469 17.835938 -20.730469 C 15.234375 -20.730469 11.957031 -21.402344 9.160156 -22.945312 C 10.414062 -28.539062 14.269531 -33.261719 19.863281 -33.261719 Z M 19.863281 -33.261719 "/></g></g></g><g fill="#000000" fill-opacity="1"><g transform="translate(279.535601, 319.64987)"><g><path d="M 43.195312 -22.464844 C 38.277344 -10.703125 35.769531 -5.976562 33.261719 -5.976562 C 31.816406 -5.976562 30.851562 -6.941406 30.851562 -9.253906 C 30.851562 -15.425781 32.394531 -24.875 32.394531 -29.40625 C 32.394531 -34.710938 28.828125 -38.277344 23.523438 -38.277344 C 18.511719 -38.277344 13.789062 -35.382812 10.125 -29.886719 C 10.316406 -31.914062 10.507812 -33.746094 10.507812 -35 C 10.507812 -37.121094 9.0625 -38.179688 7.519531 -38.179688 C 5.976562 -38.179688 4.339844 -37.023438 4.144531 -34.902344 C 3.472656 -27.285156 2.410156 -10.703125 2.410156 -3.085938 C 2.410156 -0.964844 3.953125 0.0976562 5.496094 0.0976562 C 7.132812 0.0976562 8.773438 -0.964844 8.773438 -3.085938 C 8.773438 -6.460938 8.871094 -10.125 9.0625 -13.882812 C 10.316406 -24.585938 16.777344 -32.394531 21.984375 -32.394531 C 24.585938 -32.394531 26.03125 -30.851562 26.03125 -27.863281 C 26.03125 -24.585938 24.488281 -15.8125 24.488281 -9.835938 C 24.488281 -3.183594 27.671875 0 32.300781 0 C 37.792969 0 41.554688 -4.628906 47.820312 -20.441406 C 48.015625 -20.921875 48.109375 -21.402344 48.109375 -21.789062 C 48.109375 -23.332031 46.953125 -24.394531 45.699219 -24.394531 C 44.738281 -24.394531 43.773438 -23.816406 43.195312 -22.464844 Z M 43.195312 -22.464844 "/></g></g></g><g fill="#000000" fill-opacity="1"><g transform="translate(319.544097, 319.64987)"><g><path d="M 29.308594 -22.464844 C 25.742188 -13.402344 21.210938 -6.074219 15.425781 -6.074219 C 10.992188 -6.074219 8.773438 -9.0625 8.773438 -15.621094 C 8.773438 -19.570312 9.546875 -26.320312 10.605469 -32.78125 C 10.894531 -34.324219 11.28125 -37.214844 11.761719 -40.6875 C 16.582031 -40.203125 19.957031 -39.53125 21.113281 -39.53125 C 22.65625 -39.53125 23.621094 -40.878906 23.621094 -42.230469 C 23.621094 -43.386719 22.945312 -44.445312 21.402344 -44.832031 C 18.414062 -45.605469 15.523438 -45.988281 12.535156 -46.277344 C 13.207031 -51.871094 13.882812 -57.367188 13.882812 -59.296875 C 13.882812 -61.222656 12.726562 -62.476562 10.894531 -62.476562 C 8.964844 -62.476562 7.617188 -61.320312 7.519531 -59.390625 C 7.328125 -55.148438 6.84375 -50.8125 6.265625 -46.664062 L 2.988281 -46.664062 C 0.769531 -46.664062 -0.289062 -45.316406 -0.289062 -43.964844 C -0.289062 -42.519531 0.769531 -41.167969 2.796875 -41.167969 L 5.496094 -41.167969 C 5.109375 -38.46875 4.722656 -35.960938 4.339844 -33.746094 C 3.277344 -26.996094 2.410156 -20.441406 2.410156 -16.101562 C 2.410156 -5.785156 6.75 -0.0976562 14.945312 -0.0976562 C 24.394531 -0.0976562 30.273438 -10.316406 33.9375 -20.441406 C 34.132812 -21.019531 34.226562 -21.5 34.226562 -21.984375 C 34.226562 -23.621094 33.167969 -24.683594 31.914062 -24.683594 C 30.949219 -24.683594 29.886719 -24.007812 29.308594 -22.464844 Z M 29.308594 -22.464844 "/></g></g></g><g fill="#000000" fill-opacity="1"><g transform="translate(345.670136, 319.64987)"><g><path d="M 9.738281 -43.484375 C 11.859375 -43.484375 13.5 -45.121094 13.5 -47.242188 C 13.5 -49.363281 11.859375 -51.003906 9.738281 -51.003906 C 7.617188 -51.003906 5.976562 -49.363281 5.976562 -47.242188 C 5.976562 -45.121094 7.617188 -43.484375 9.738281 -43.484375 Z M 12.726562 0.386719 C 18.609375 0.386719 23.621094 -5.785156 29.019531 -20.441406 C 29.214844 -20.921875 29.308594 -21.402344 29.308594 -21.789062 C 29.308594 -23.429688 28.152344 -24.585938 26.898438 -24.585938 C 25.9375 -24.585938 24.972656 -23.910156 24.394531 -22.464844 C 19.667969 -10.796875 16.679688 -5.59375 13.5 -5.59375 C 11.183594 -5.59375 9.160156 -7.617188 9.160156 -14.460938 C 9.160156 -18.609375 9.640625 -23.71875 11.28125 -34.515625 C 11.667969 -37.023438 10.027344 -38.46875 8.386719 -38.46875 C 6.84375 -38.46875 5.304688 -37.410156 4.820312 -34.804688 C 3.855469 -29.40625 2.796875 -20.054688 2.796875 -15.039062 C 2.796875 -3.761719 7.132812 0.386719 12.726562 0.386719 Z M 12.726562 0.386719 "/></g></g></g><g fill="#000000" fill-opacity="1"><g transform="translate(366.879462, 319.64987)"><g><path d="M 43.195312 -22.464844 C 38.277344 -10.703125 35.769531 -5.976562 33.261719 -5.976562 C 31.816406 -5.976562 30.851562 -6.941406 30.851562 -9.253906 C 30.851562 -15.425781 32.394531 -24.875 32.394531 -29.40625 C 32.394531 -34.710938 28.828125 -38.277344 23.523438 -38.277344 C 18.511719 -38.277344 13.789062 -35.382812 10.125 -29.886719 C 10.316406 -31.914062 10.507812 -33.746094 10.507812 -35 C 10.507812 -37.121094 9.0625 -38.179688 7.519531 -38.179688 C 5.976562 -38.179688 4.339844 -37.023438 4.144531 -34.902344 C 3.472656 -27.285156 2.410156 -10.703125 2.410156 -3.085938 C 2.410156 -0.964844 3.953125 0.0976562 5.496094 0.0976562 C 7.132812 0.0976562 8.773438 -0.964844 8.773438 -3.085938 C 8.773438 -6.460938 8.871094 -10.125 9.0625 -13.882812 C 10.316406 -24.585938 16.777344 -32.394531 21.984375 -32.394531 C 24.585938 -32.394531 26.03125 -30.851562 26.03125 -27.863281 C 26.03125 -24.585938 24.488281 -15.8125 24.488281 -9.835938 C 24.488281 -3.183594 27.671875 0 32.300781 0 C 37.792969 0 41.554688 -4.628906 47.820312 -20.441406 C 48.015625 -20.921875 48.109375 -21.402344 48.109375 -21.789062 C 48.109375 -23.332031 46.953125 -24.394531 45.699219 -24.394531 C 44.738281 -24.394531 43.773438 -23.816406 43.195312 -22.464844 Z M 43.195312 -22.464844 "/></g></g></g><g fill="#000000" fill-opacity="1"><g transform="translate(406.887969, 319.64987)"><g><path d="M 40.011719 -22.464844 C 35.480469 -10.992188 29.597656 -5.304688 20.535156 -5.304688 C 14.367188 -5.304688 9.351562 -9.546875 8.871094 -17.644531 C 11.378906 -16.292969 14.65625 -15.425781 18.222656 -15.425781 C 26.707031 -15.425781 32.203125 -20.921875 32.203125 -28.058594 C 32.203125 -34.515625 27.285156 -39.242188 19.863281 -39.242188 C 8.773438 -39.242188 2.410156 -29.214844 2.410156 -18.898438 C 2.410156 -6.074219 10.507812 0.675781 20.152344 0.675781 C 31.140625 0.675781 39.335938 -6.265625 44.640625 -20.441406 C 44.832031 -21.019531 44.929688 -21.5 44.929688 -21.984375 C 44.929688 -23.621094 43.773438 -24.585938 42.617188 -24.585938 C 41.652344 -24.585938 40.589844 -23.910156 40.011719 -22.464844 Z M 19.863281 -33.261719 C 23.910156 -33.261719 25.9375 -30.757812 25.9375 -27.960938 C 25.9375 -24.007812 23.042969 -20.730469 17.835938 -20.730469 C 15.234375 -20.730469 11.957031 -21.402344 9.160156 -22.945312 C 10.414062 -28.539062 14.269531 -33.261719 19.863281 -33.261719 Z M 19.863281 -33.261719 "/></g></g></g></svg>