<svg xmlns="http://www.w3.org/2000/svg" xmlns:xlink="http://www.w3.org/1999/xlink" zoomAndPan="magnify" preserveAspectRatio="xMidYMid meet" version="1.0" viewBox="79.12 78.48 187.34 19.45"><defs><g/></defs><g fill="#000000" fill-opacity="1"><g transform="translate(78.987814, 94.326611)"><g><path d="M 4.695312 -13.15625 L 4.695312 0 L 6.867188 0 L 6.867188 -13.15625 L 11.414062 -13.15625 L 11.414062 -15.222656 L 0.128906 -15.222656 L 0.128906 -13.15625 Z M 4.695312 -13.15625 "/></g></g></g><g fill="#000000" fill-opacity="1"><g transform="translate(90.547115, 94.326611)"><g><path d="M 13.671875 -5.8125 C 13.671875 -9.820312 10.574219 -11.84375 7.429688 -11.84375 C 4.261719 -11.84375 1.121094 -9.839844 1.121094 -5.8125 C 1.121094 -1.808594 4.242188 0.214844 7.363281 0.214844 C 10.527344 0.214844 13.671875 -1.789062 13.671875 -5.8125 Z M 3.230469 -5.8125 C 3.230469 -8.589844 5.320312 -9.96875 7.429688 -9.96875 C 9.496094 -9.96875 11.585938 -8.570312 11.585938 -5.8125 C 11.585938 -3.078125 9.496094 -1.679688 7.40625 -1.679688 C 5.320312 -1.679688 3.230469 -3.058594 3.230469 -5.8125 Z M 3.230469 -5.8125 "/></g></g></g><g fill="#000000" fill-opacity="1"><g transform="translate(105.485953, 94.326611)"><g/></g></g><g fill="#000000" fill-opacity="1"><g transform="translate(110.845857, 94.326611)"><g><path d="M 1.851562 0 L 4.027344 0 L 4.027344 -10.617188 L 7.96875 -4.757812 L 9.195312 -4.757812 L 13.132812 -10.617188 L 13.132812 0 L 15.289062 0 L 15.289062 -15.074219 L 13.566406 -15.074219 L 8.589844 -7.75 L 3.617188 -15.074219 L 1.851562 -15.074219 Z M 1.851562 0 "/></g></g></g><g fill="#000000" fill-opacity="1"><g transform="translate(127.958785, 94.326611)"><g><path d="M 9.453125 -11.820312 L 7.449219 -6.632812 L 6.09375 -2.84375 L 4.78125 -6.652344 L 2.671875 -11.820312 L 0.429688 -11.820312 L 4.972656 -0.601562 L 3.335938 3.597656 L 5.578125 3.597656 L 11.691406 -11.820312 Z M 9.453125 -11.820312 "/></g></g></g><g fill="#000000" fill-opacity="1"><g transform="translate(140.056227, 94.326611)"><g/></g></g><g fill="#000000" fill-opacity="1"><g transform="translate(145.416132, 94.326611)"><g><path d="M 9.386719 -11.175781 L 11.542969 -11.261719 C 11.152344 -14.015625 8.742188 -15.222656 6.417969 -15.222656 C 4.671875 -15.222656 2.863281 -14.535156 1.851562 -13.222656 C 1.292969 -12.488281 1.011719 -11.628906 1.011719 -10.722656 C 1.011719 -10.617188 1.035156 -10.484375 1.035156 -10.355469 L 1.035156 -10.378906 C 1.269531 -7.234375 4.027344 -6.71875 6.375 -6.480469 C 7.878906 -6.332031 9.429688 -6.136719 9.691406 -4.996094 C 9.734375 -4.800781 9.753906 -4.628906 9.753906 -4.480469 C 9.753906 -2.929688 7.988281 -2.023438 6.375 -2.023438 C 4.972656 -2.023438 3.273438 -2.757812 3.121094 -4.15625 L 3.121094 -4.070312 L 3.101562 -4.394531 L 0.90625 -4.347656 L 0.925781 -3.941406 C 1.207031 -1.25 4.027344 0.128906 6.351562 0.128906 C 9.066406 0.128906 11.949219 -1.550781 11.949219 -4.457031 C 11.949219 -4.757812 11.90625 -5.125 11.84375 -5.449219 C 11.261719 -7.859375 8.699219 -8.398438 6.632812 -8.65625 C 4.953125 -8.808594 3.207031 -9.023438 3.207031 -10.765625 C 3.207031 -11.195312 3.316406 -11.628906 3.574219 -11.949219 C 4.199219 -12.746094 5.339844 -13.089844 6.375 -13.089844 C 7.664062 -13.089844 9.085938 -12.511719 9.386719 -11.175781 Z M 9.386719 -11.175781 "/></g></g></g><g fill="#000000" fill-opacity="1"><g transform="translate(158.223926, 94.326611)"><g><path d="M 4.371094 -11.648438 L 4.371094 -14.234375 L 2.261719 -13.824219 L 2.261719 -11.648438 L 0.515625 -11.648438 L 0.515625 -9.96875 L 2.261719 -9.96875 L 2.261719 -3.421875 C 2.261719 -0.710938 3.746094 0.0664062 6.027344 0.0664062 C 6.332031 0.0664062 6.652344 0.0429688 6.996094 0.0234375 L 6.996094 -1.742188 C 6.675781 -1.722656 6.375 -1.699219 6.113281 -1.699219 C 5.058594 -1.699219 4.371094 -2.023438 4.371094 -3.402344 L 4.371094 -9.96875 L 6.933594 -9.96875 L 6.933594 -11.648438 Z M 4.371094 -11.648438 "/></g></g></g><g fill="#000000" fill-opacity="1"><g transform="translate(165.628769, 94.326611)"><g><path d="M 13.714844 0 L 13.714844 -11.648438 L 11.605469 -11.648438 L 11.628906 -10.097656 C 10.59375 -11.5 8.851562 -11.84375 7.40625 -11.84375 C 3.464844 -11.84375 1.183594 -9.023438 1.183594 -5.878906 C 1.183594 -2.671875 3.378906 0.195312 7.449219 0.195312 C 8.894531 0.171875 10.765625 -0.300781 11.605469 -1.570312 L 11.605469 0 Z M 11.605469 -5.835938 C 11.605469 -3.035156 9.34375 -1.679688 7.40625 -1.679688 C 4.824219 -1.679688 3.292969 -3.683594 3.292969 -5.878906 C 3.292969 -8.183594 4.84375 -9.992188 7.40625 -9.992188 C 9.386719 -9.992188 11.605469 -8.613281 11.605469 -5.835938 Z M 11.605469 -5.835938 "/></g></g></g><g fill="#000000" fill-opacity="1"><g transform="translate(180.739816, 94.326611)"><g><path d="M 3.703125 -10.207031 L 3.703125 -11.628906 L 1.613281 -11.628906 L 1.613281 0 L 3.703125 0 L 3.703125 -6.308594 C 3.703125 -8.441406 5.339844 -10.011719 7.300781 -10.011719 C 7.644531 -10.011719 8.011719 -9.96875 8.375 -9.863281 L 8.375 -11.714844 C 7.902344 -11.820312 7.449219 -11.886719 6.996094 -11.886719 C 5.707031 -11.886719 4.542969 -11.367188 3.703125 -10.207031 Z M 3.703125 -10.207031 "/></g></g></g><g fill="#000000" fill-opacity="1"><g transform="translate(189.780608, 94.326611)"><g><path d="M 1.875 -1.808594 L 0.300781 2.152344 L 2.21875 2.152344 L 4.21875 -1.808594 Z M 1.875 -1.808594 "/></g></g></g><g fill="#000000" fill-opacity="1"><g transform="translate(195.011349, 94.326611)"><g/></g></g><g fill="#000000" fill-opacity="1"><g transform="translate(200.371254, 94.326611)"><g><path d="M 9.386719 -11.175781 L 11.542969 -11.261719 C 11.152344 -14.015625 8.742188 -15.222656 6.417969 -15.222656 C 4.671875 -15.222656 2.863281 -14.535156 1.851562 -13.222656 C 1.292969 -12.488281 1.011719 -11.628906 1.011719 -10.722656 C 1.011719 -10.617188 1.035156 -10.484375 1.035156 -10.355469 L 1.035156 -10.378906 C 1.269531 -7.234375 4.027344 -6.71875 6.375 -6.480469 C 7.878906 -6.332031 9.429688 -6.136719 9.691406 -4.996094 C 9.734375 -4.800781 9.753906 -4.628906 9.753906 -4.480469 C 9.753906 -2.929688 7.988281 -2.023438 6.375 -2.023438 C 4.972656 -2.023438 3.273438 -2.757812 3.121094 -4.15625 L 3.121094 -4.070312 L 3.101562 -4.394531 L 0.90625 -4.347656 L 0.925781 -3.941406 C 1.207031 -1.25 4.027344 0.128906 6.351562 0.128906 C 9.066406 0.128906 11.949219 -1.550781 11.949219 -4.457031 C 11.949219 -4.757812 11.90625 -5.125 11.84375 -5.449219 C 11.261719 -7.859375 8.699219 -8.398438 6.632812 -8.65625 C 4.953125 -8.808594 3.207031 -9.023438 3.207031 -10.765625 C 3.207031 -11.195312 3.316406 -11.628906 3.574219 -11.949219 C 4.199219 -12.746094 5.339844 -13.089844 6.375 -13.089844 C 7.664062 -13.089844 9.085938 -12.511719 9.386719 -11.175781 Z M 9.386719 -11.175781 "/></g></g></g><g fill="#000000" fill-opacity="1"><g transform="translate(213.179048, 94.326611)"><g><path d="M 3.640625 -10.207031 L 3.640625 -15.074219 L 1.550781 -15.074219 L 1.550781 0 L 3.640625 0 L 3.640625 -6.332031 C 3.640625 -8.355469 4.84375 -9.949219 7.0625 -9.949219 C 9.601562 -9.949219 10.183594 -8.441406 10.183594 -6.246094 L 10.183594 0 L 12.296875 0 L 12.296875 -6.265625 C 12.296875 -9.601562 10.765625 -11.820312 7.214844 -11.820312 C 5.75 -11.820312 4.523438 -11.457031 3.640625 -10.207031 Z M 3.640625 -10.207031 "/></g></g></g><g fill="#000000" fill-opacity="1"><g transform="translate(227.127708, 94.326611)"><g><path d="M 13.046875 -6.332031 C 12.8125 -9.992188 9.96875 -11.820312 7.085938 -11.820312 C 4.003906 -11.820312 1.035156 -9.820312 1.035156 -5.8125 C 1.035156 -1.808594 4.046875 0.214844 7.042969 0.214844 C 9.429688 0.214844 11.820312 -1.054688 12.703125 -3.597656 L 10.527344 -3.597656 C 9.839844 -2.28125 8.503906 -1.65625 7.0625 -1.65625 C 5.320312 -1.65625 3.144531 -3.035156 3.144531 -5.320312 L 13.003906 -5.320312 C 13.046875 -5.511719 13.070312 -5.726562 13.070312 -5.964844 C 13.070312 -6.09375 13.070312 -6.203125 13.046875 -6.332031 Z M 10.832031 -7.0625 L 3.230469 -7.0625 C 3.660156 -9.128906 5.382812 -9.96875 7.085938 -9.96875 C 8.761719 -9.96875 10.421875 -9.152344 10.832031 -7.0625 Z M 10.832031 -7.0625 "/></g></g></g><g fill="#000000" fill-opacity="1"><g transform="translate(241.334671, 94.326611)"><g><path d="M 1.484375 -14.640625 C 1.484375 -13.824219 2.152344 -13.414062 2.800781 -13.414062 C 3.464844 -13.414062 4.113281 -13.824219 4.113281 -14.640625 C 4.113281 -15.460938 3.464844 -15.847656 2.820312 -15.847656 C 2.152344 -15.847656 1.484375 -15.4375 1.484375 -14.640625 Z M 1.742188 -11.777344 L 3.855469 -11.777344 L 3.855469 0 L 1.742188 0 Z M 1.742188 -11.777344 "/></g></g></g><g fill="#000000" fill-opacity="1"><g transform="translate(247.125088, 94.326611)"><g><path d="M 1.613281 0 L 3.726562 0 L 3.726562 -15.074219 L 1.613281 -15.074219 Z M 1.613281 0 "/></g></g></g><g fill="#000000" fill-opacity="1"><g transform="translate(252.463458, 94.326611)"><g><path d="M 13.714844 0 L 13.714844 -11.648438 L 11.605469 -11.648438 L 11.628906 -10.097656 C 10.59375 -11.5 8.851562 -11.84375 7.40625 -11.84375 C 3.464844 -11.84375 1.183594 -9.023438 1.183594 -5.878906 C 1.183594 -2.671875 3.378906 0.195312 7.449219 0.195312 C 8.894531 0.171875 10.765625 -0.300781 11.605469 -1.570312 L 11.605469 0 Z M 11.605469 -5.835938 C 11.605469 -3.035156 9.34375 -1.679688 7.40625 -1.679688 C 4.824219 -1.679688 3.292969 -3.683594 3.292969 -5.878906 C 3.292969 -8.183594 4.84375 -9.992188 7.40625 -9.992188 C 9.386719 -9.992188 11.605469 -8.613281 11.605469 -5.835938 Z M 11.605469 -5.835938 "/></g></g></g><g fill="#000000" fill-opacity="1"><g transform="translate(79.270163, 94.326611)"><g><path d="M 4.695312 -13.15625 L 4.695312 0 L 6.867188 0 L 6.867188 -13.15625 L 11.414062 -13.15625 L 11.414062 -15.222656 L 0.128906 -15.222656 L 0.128906 -13.15625 Z M 4.695312 -13.15625 "/></g></g></g><g fill="#000000" fill-opacity="1"><g transform="translate(90.829464, 94.326611)"><g><path d="M 13.671875 -5.8125 C 13.671875 -9.820312 10.574219 -11.84375 7.429688 -11.84375 C 4.261719 -11.84375 1.121094 -9.839844 1.121094 -5.8125 C 1.121094 -1.808594 4.242188 0.214844 7.363281 0.214844 C 10.527344 0.214844 13.671875 -1.789062 13.671875 -5.8125 Z M 3.230469 -5.8125 C 3.230469 -8.589844 5.320312 -9.96875 7.429688 -9.96875 C 9.496094 -9.96875 11.585938 -8.570312 11.585938 -5.8125 C 11.585938 -3.078125 9.496094 -1.679688 7.40625 -1.679688 C 5.320312 -1.679688 3.230469 -3.058594 3.230469 -5.8125 Z M 3.230469 -5.8125 "/></g></g></g><g fill="#000000" fill-opacity="1"><g transform="translate(105.768301, 94.326611)"><g/></g></g><g fill="#000000" fill-opacity="1"><g transform="translate(111.128206, 94.326611)"><g><path d="M 1.851562 0 L 4.027344 0 L 4.027344 -10.617188 L 7.96875 -4.757812 L 9.195312 -4.757812 L 13.132812 -10.617188 L 13.132812 0 L 15.289062 0 L 15.289062 -15.074219 L 13.566406 -15.074219 L 8.589844 -7.75 L 3.617188 -15.074219 L 1.851562 -15.074219 Z M 1.851562 0 "/></g></g></g><g fill="#000000" fill-opacity="1"><g transform="translate(128.241133, 94.326611)"><g><path d="M 9.453125 -11.820312 L 7.449219 -6.632812 L 6.09375 -2.84375 L 4.78125 -6.652344 L 2.671875 -11.820312 L 0.429688 -11.820312 L 4.972656 -0.601562 L 3.335938 3.597656 L 5.578125 3.597656 L 11.691406 -11.820312 Z M 9.453125 -11.820312 "/></g></g></g><g fill="#000000" fill-opacity="1"><g transform="translate(140.338576, 94.326611)"><g/></g></g><g fill="#000000" fill-opacity="1"><g transform="translate(145.698481, 94.326611)"><g><path d="M 9.386719 -11.175781 L 11.542969 -11.261719 C 11.152344 -14.015625 8.742188 -15.222656 6.417969 -15.222656 C 4.671875 -15.222656 2.863281 -14.535156 1.851562 -13.222656 C 1.292969 -12.488281 1.011719 -11.628906 1.011719 -10.722656 C 1.011719 -10.617188 1.035156 -10.484375 1.035156 -10.355469 L 1.035156 -10.378906 C 1.269531 -7.234375 4.027344 -6.71875 6.375 -6.480469 C 7.878906 -6.332031 9.429688 -6.136719 9.691406 -4.996094 C 9.734375 -4.800781 9.753906 -4.628906 9.753906 -4.480469 C 9.753906 -2.929688 7.988281 -2.023438 6.375 -2.023438 C 4.972656 -2.023438 3.273438 -2.757812 3.121094 -4.15625 L 3.121094 -4.070312 L 3.101562 -4.394531 L 0.90625 -4.347656 L 0.925781 -3.941406 C 1.207031 -1.25 4.027344 0.128906 6.351562 0.128906 C 9.066406 0.128906 11.949219 -1.550781 11.949219 -4.457031 C 11.949219 -4.757812 11.90625 -5.125 11.84375 -5.449219 C 11.261719 -7.859375 8.699219 -8.398438 6.632812 -8.65625 C 4.953125 -8.808594 3.207031 -9.023438 3.207031 -10.765625 C 3.207031 -11.195312 3.316406 -11.628906 3.574219 -11.949219 C 4.199219 -12.746094 5.339844 -13.089844 6.375 -13.089844 C 7.664062 -13.089844 9.085938 -12.511719 9.386719 -11.175781 Z M 9.386719 -11.175781 "/></g></g></g><g fill="#000000" fill-opacity="1"><g transform="translate(158.506275, 94.326611)"><g><path d="M 4.371094 -11.648438 L 4.371094 -14.234375 L 2.261719 -13.824219 L 2.261719 -11.648438 L 0.515625 -11.648438 L 0.515625 -9.96875 L 2.261719 -9.96875 L 2.261719 -3.421875 C 2.261719 -0.710938 3.746094 0.0664062 6.027344 0.0664062 C 6.332031 0.0664062 6.652344 0.0429688 6.996094 0.0234375 L 6.996094 -1.742188 C 6.675781 -1.722656 6.375 -1.699219 6.113281 -1.699219 C 5.058594 -1.699219 4.371094 -2.023438 4.371094 -3.402344 L 4.371094 -9.96875 L 6.933594 -9.96875 L 6.933594 -11.648438 Z M 4.371094 -11.648438 "/></g></g></g><g fill="#000000" fill-opacity="1"><g transform="translate(165.911118, 94.326611)"><g><path d="M 13.714844 0 L 13.714844 -11.648438 L 11.605469 -11.648438 L 11.628906 -10.097656 C 10.59375 -11.5 8.851562 -11.84375 7.40625 -11.84375 C 3.464844 -11.84375 1.183594 -9.023438 1.183594 -5.878906 C 1.183594 -2.671875 3.378906 0.195312 7.449219 0.195312 C 8.894531 0.171875 10.765625 -0.300781 11.605469 -1.570312 L 11.605469 0 Z M 11.605469 -5.835938 C 11.605469 -3.035156 9.34375 -1.679688 7.40625 -1.679688 C 4.824219 -1.679688 3.292969 -3.683594 3.292969 -5.878906 C 3.292969 -8.183594 4.84375 -9.992188 7.40625 -9.992188 C 9.386719 -9.992188 11.605469 -8.613281 11.605469 -5.835938 Z M 11.605469 -5.835938 "/></g></g></g><g fill="#000000" fill-opacity="1"><g transform="translate(181.022165, 94.326611)"><g><path d="M 3.703125 -10.207031 L 3.703125 -11.628906 L 1.613281 -11.628906 L 1.613281 0 L 3.703125 0 L 3.703125 -6.308594 C 3.703125 -8.441406 5.339844 -10.011719 7.300781 -10.011719 C 7.644531 -10.011719 8.011719 -9.96875 8.375 -9.863281 L 8.375 -11.714844 C 7.902344 -11.820312 7.449219 -11.886719 6.996094 -11.886719 C 5.707031 -11.886719 4.542969 -11.367188 3.703125 -10.207031 Z M 3.703125 -10.207031 "/></g></g></g><g fill="#000000" fill-opacity="1"><g transform="translate(190.062957, 94.326611)"><g><path d="M 1.875 -1.808594 L 0.300781 2.152344 L 2.21875 2.152344 L 4.21875 -1.808594 Z M 1.875 -1.808594 "/></g></g></g><g fill="#000000" fill-opacity="1"><g transform="translate(195.293698, 94.326611)"><g/></g></g><g fill="#000000" fill-opacity="1"><g transform="translate(200.653603, 94.326611)"><g><path d="M 9.386719 -11.175781 L 11.542969 -11.261719 C 11.152344 -14.015625 8.742188 -15.222656 6.417969 -15.222656 C 4.671875 -15.222656 2.863281 -14.535156 1.851562 -13.222656 C 1.292969 -12.488281 1.011719 -11.628906 1.011719 -10.722656 C 1.011719 -10.617188 1.035156 -10.484375 1.035156 -10.355469 L 1.035156 -10.378906 C 1.269531 -7.234375 4.027344 -6.71875 6.375 -6.480469 C 7.878906 -6.332031 9.429688 -6.136719 9.691406 -4.996094 C 9.734375 -4.800781 9.753906 -4.628906 9.753906 -4.480469 C 9.753906 -2.929688 7.988281 -2.023438 6.375 -2.023438 C 4.972656 -2.023438 3.273438 -2.757812 3.121094 -4.15625 L 3.121094 -4.070312 L 3.101562 -4.394531 L 0.90625 -4.347656 L 0.925781 -3.941406 C 1.207031 -1.25 4.027344 0.128906 6.351562 0.128906 C 9.066406 0.128906 11.949219 -1.550781 11.949219 -4.457031 C 11.949219 -4.757812 11.90625 -5.125 11.84375 -5.449219 C 11.261719 -7.859375 8.699219 -8.398438 6.632812 -8.65625 C 4.953125 -8.808594 3.207031 -9.023438 3.207031 -10.765625 C 3.207031 -11.195312 3.316406 -11.628906 3.574219 -11.949219 C 4.199219 -12.746094 5.339844 -13.089844 6.375 -13.089844 C 7.664062 -13.089844 9.085938 -12.511719 9.386719 -11.175781 Z M 9.386719 -11.175781 "/></g></g></g><g fill="#000000" fill-opacity="1"><g transform="translate(213.461397, 94.326611)"><g><path d="M 3.640625 -10.207031 L 3.640625 -15.074219 L 1.550781 -15.074219 L 1.550781 0 L 3.640625 0 L 3.640625 -6.332031 C 3.640625 -8.355469 4.84375 -9.949219 7.0625 -9.949219 C 9.601562 -9.949219 10.183594 -8.441406 10.183594 -6.246094 L 10.183594 0 L 12.296875 0 L 12.296875 -6.265625 C 12.296875 -9.601562 10.765625 -11.820312 7.214844 -11.820312 C 5.75 -11.820312 4.523438 -11.457031 3.640625 -10.207031 Z M 3.640625 -10.207031 "/></g></g></g><g fill="#000000" fill-opacity="1"><g transform="translate(227.410057, 94.326611)"><g><path d="M 13.046875 -6.332031 C 12.8125 -9.992188 9.96875 -11.820312 7.085938 -11.820312 C 4.003906 -11.820312 1.035156 -9.820312 1.035156 -5.8125 C 1.035156 -1.808594 4.046875 0.214844 7.042969 0.214844 C 9.429688 0.214844 11.820312 -1.054688 12.703125 -3.597656 L 10.527344 -3.597656 C 9.839844 -2.28125 8.503906 -1.65625 7.0625 -1.65625 C 5.320312 -1.65625 3.144531 -3.035156 3.144531 -5.320312 L 13.003906 -5.320312 C 13.046875 -5.511719 13.070312 -5.726562 13.070312 -5.964844 C 13.070312 -6.09375 13.070312 -6.203125 13.046875 -6.332031 Z M 10.832031 -7.0625 L 3.230469 -7.0625 C 3.660156 -9.128906 5.382812 -9.96875 7.085938 -9.96875 C 8.761719 -9.96875 10.421875 -9.152344 10.832031 -7.0625 Z M 10.832031 -7.0625 "/></g></g></g><g fill="#000000" fill-opacity="1"><g transform="translate(241.617019, 94.326611)"><g><path d="M 1.484375 -14.640625 C 1.484375 -13.824219 2.152344 -13.414062 2.800781 -13.414062 C 3.464844 -13.414062 4.113281 -13.824219 4.113281 -14.640625 C 4.113281 -15.460938 3.464844 -15.847656 2.820312 -15.847656 C 2.152344 -15.847656 1.484375 -15.4375 1.484375 -14.640625 Z M 1.742188 -11.777344 L 3.855469 -11.777344 L 3.855469 0 L 1.742188 0 Z M 1.742188 -11.777344 "/></g></g></g><g fill="#000000" fill-opacity="1"><g transform="translate(247.407437, 94.326611)"><g><path d="M 1.613281 0 L 3.726562 0 L 3.726562 -15.074219 L 1.613281 -15.074219 Z M 1.613281 0 "/></g></g></g><g fill="#000000" fill-opacity="1"><g transform="translate(252.745807, 94.326611)"><g><path d="M 13.714844 0 L 13.714844 -11.648438 L 11.605469 -11.648438 L 11.628906 -10.097656 C 10.59375 -11.5 8.851562 -11.84375 7.40625 -11.84375 C 3.464844 -11.84375 1.183594 -9.023438 1.183594 -5.878906 C 1.183594 -2.671875 3.378906 0.195312 7.449219 0.195312 C 8.894531 0.171875 10.765625 -0.300781 11.605469 -1.570312 L 11.605469 0 Z M 11.605469 -5.835938 C 11.605469 -3.035156 9.34375 -1.679688 7.40625 -1.679688 C 4.824219 -1.679688 3.292969 -3.683594 3.292969 -5.878906 C 3.292969 -8.183594 4.84375 -9.992188 7.40625 -9.992188 C 9.386719 -9.992188 11.605469 -8.613281 11.605469 -5.835938 Z M 11.605469 -5.835938 "/></g></g></g></svg>