<svg xmlns="http://www.w3.org/2000/svg" xmlns:xlink="http://www.w3.org/1999/xlink" zoomAndPan="magnify" preserveAspectRatio="xMidYMid meet" version="1.0" viewBox="75.23 87.42 418.35 141.63"><defs><g/></defs><g fill="#000000" fill-opacity="1"><g transform="translate(75.287111, 131.744934)"><g><path d="M 25.832031 -20.050781 L 33.238281 0.242188 L 37.515625 0.242188 L 51.726562 -42.574219 L 45.34375 -42.574219 C 42.210938 -33 38.480469 -21.796875 35.167969 -11.742188 L 28.300781 -31.375 L 23.425781 -31.375 L 16.5 -11.683594 L 6.261719 -42.574219 L -0.0585938 -42.574219 L 14.273438 0.242188 L 18.546875 0.242188 C 20.714844 -6.140625 23.425781 -13.1875 25.832031 -20.050781 Z M 25.832031 -20.050781 "/></g></g></g><g fill="#000000" fill-opacity="1"><g transform="translate(126.707254, 131.744934)"><g><path d="M 4.15625 -40.949219 C 4.15625 -38.660156 6.023438 -37.515625 7.828125 -37.515625 C 9.695312 -37.515625 11.5 -38.660156 11.5 -40.949219 C 11.5 -43.234375 9.695312 -44.320312 7.886719 -44.320312 C 6.023438 -44.320312 4.15625 -43.175781 4.15625 -40.949219 Z M 4.878906 -32.9375 L 10.777344 -32.9375 L 10.777344 0 L 4.878906 0 Z M 4.878906 -32.9375 "/></g></g></g><g fill="#000000" fill-opacity="1"><g transform="translate(142.903996, 131.744934)"><g><path d="M 4.515625 0 L 10.417969 0 L 10.417969 -42.152344 L 4.515625 -42.152344 Z M 4.515625 0 "/></g></g></g><g fill="#000000" fill-opacity="1"><g transform="translate(157.836315, 131.744934)"><g><path d="M 4.515625 0 L 10.417969 0 L 10.417969 -42.152344 L 4.515625 -42.152344 Z M 4.515625 0 "/></g></g></g><g fill="#000000" fill-opacity="1"><g transform="translate(172.768634, 131.744934)"><g/></g></g><g fill="#000000" fill-opacity="1"><g transform="translate(187.76116, 131.744934)"><g><path d="M 18.125 -23.605469 L 6.261719 -42.933594 L -0.902344 -42.933594 L 15.054688 -17.160156 L 15.054688 0 L 21.195312 0 L 21.195312 -17.160156 L 37.335938 -42.933594 L 30.109375 -42.933594 Z M 18.125 -23.605469 "/></g></g></g><g fill="#000000" fill-opacity="1"><g transform="translate(224.068352, 131.744934)"><g><path d="M 38.238281 -16.257812 C 38.238281 -27.460938 29.566406 -33.121094 20.773438 -33.121094 C 11.921875 -33.121094 3.132812 -27.519531 3.132812 -16.257812 C 3.132812 -5.058594 11.863281 0.601562 20.59375 0.601562 C 29.445312 0.601562 38.238281 -5 38.238281 -16.257812 Z M 9.03125 -16.257812 C 9.03125 -24.027344 14.875 -27.878906 20.773438 -27.878906 C 26.554688 -27.878906 32.398438 -23.964844 32.398438 -16.257812 C 32.398438 -8.609375 26.554688 -4.695312 20.714844 -4.695312 C 14.875 -4.695312 9.03125 -8.550781 9.03125 -16.257812 Z M 9.03125 -16.257812 "/></g></g></g><g fill="#000000" fill-opacity="1"><g transform="translate(265.854745, 131.744934)"><g><path d="M 28.542969 -4.277344 L 28.542969 0 L 34.144531 0 L 34.144531 -32.878906 L 28.242188 -32.878906 L 28.242188 -14.875 C 28.242188 -9.152344 24.871094 -4.757812 18.667969 -4.757812 C 11.5625 -4.757812 9.996094 -8.972656 9.996094 -15.054688 L 9.996094 -32.878906 L 4.09375 -32.878906 L 4.09375 -15.054688 C 4.09375 -5.71875 8.371094 0.480469 18.246094 0.480469 C 22.460938 0.480469 26.132812 -0.722656 28.542969 -4.277344 Z M 28.542969 -4.277344 "/></g></g></g><g fill="#000000" fill-opacity="1"><g transform="translate(304.630587, 131.744934)"><g/></g></g><g fill="#000000" fill-opacity="1"><g transform="translate(319.623124, 131.744934)"><g><path d="M 22.703125 -42.574219 L 5.179688 -42.574219 L 5.179688 0 L 24.207031 0 C 32.277344 0 36.429688 -6.382812 36.429688 -12.707031 C 36.429688 -16.679688 34.683594 -21.136719 29.867188 -23.183594 C 32.757812 -25.351562 34.082031 -28.421875 34.082031 -31.492188 C 34.082031 -37.09375 29.6875 -42.574219 22.703125 -42.574219 Z M 22.582031 -25.351562 L 11.199219 -25.351562 L 11.199219 -36.792969 L 22.703125 -36.792969 C 26.132812 -36.792969 27.761719 -34.082031 27.761719 -31.253906 C 27.761719 -28.363281 25.953125 -25.351562 22.582031 -25.351562 Z M 24.207031 -5.902344 L 11.199219 -5.902344 L 11.199219 -19.328125 L 24.207031 -19.328125 C 28.300781 -19.328125 30.351562 -15.957031 30.351562 -12.644531 C 30.351562 -9.332031 28.300781 -5.902344 24.207031 -5.902344 Z M 24.207031 -5.902344 "/></g></g></g><g fill="#000000" fill-opacity="1"><g transform="translate(358.278563, 131.744934)"><g><path d="M 36.492188 -17.703125 C 35.828125 -27.941406 27.878906 -33.058594 19.8125 -33.058594 C 11.199219 -33.058594 2.890625 -27.460938 2.890625 -16.257812 C 2.890625 -5.058594 11.320312 0.601562 19.691406 0.601562 C 26.375 0.601562 33.058594 -2.949219 35.527344 -10.054688 L 29.445312 -10.054688 C 27.519531 -6.382812 23.785156 -4.636719 19.75 -4.636719 C 14.875 -4.636719 8.792969 -8.492188 8.792969 -14.875 L 36.371094 -14.875 C 36.492188 -15.414062 36.550781 -16.019531 36.550781 -16.679688 C 36.550781 -17.042969 36.550781 -17.34375 36.492188 -17.703125 Z M 30.289062 -19.75 L 9.03125 -19.75 C 10.238281 -25.53125 15.054688 -27.878906 19.8125 -27.878906 C 24.507812 -27.878906 29.144531 -25.59375 30.289062 -19.75 Z M 30.289062 -19.75 "/></g></g></g><g fill="#000000" fill-opacity="1"><g transform="translate(398.01778, 131.744934)"><g/></g></g><g fill="#000000" fill-opacity="1"><g transform="translate(413.010294, 131.744934)"><g><path d="M 5.179688 0 L 11.261719 0 L 11.261719 -29.6875 L 22.28125 -13.308594 L 25.710938 -13.308594 L 36.734375 -29.6875 L 36.734375 0 L 42.753906 0 L 42.753906 -42.152344 L 37.9375 -42.152344 L 24.027344 -21.679688 L 10.117188 -42.152344 L 5.179688 -42.152344 Z M 5.179688 0 "/></g></g></g><g fill="#000000" fill-opacity="1"><g transform="translate(460.877997, 131.744934)"><g><path d="M 26.433594 -33.058594 L 20.835938 -18.546875 L 17.042969 -7.949219 L 13.367188 -18.605469 L 7.46875 -33.058594 L 1.203125 -33.058594 L 13.910156 -1.6875 L 9.332031 10.054688 L 15.597656 10.054688 L 32.699219 -33.058594 Z M 26.433594 -33.058594 "/></g></g></g><g fill="#000000" fill-opacity="1"><g transform="translate(104.276369, 228.091142)"><g><path d="M 62.398438 -68.089844 C 61.335938 -68.089844 60.277344 -67.605469 59.3125 -66.738281 C 46.582031 -55.261719 38.289062 -36.164062 32.117188 -13.117188 C 30.957031 -21.507812 29.511719 -34.332031 27.871094 -53.140625 C 27.003906 -62.976562 22.277344 -68.378906 14.753906 -68.378906 C 8.96875 -68.378906 4.339844 -64.519531 2.507812 -60.953125 C 2.023438 -59.988281 1.734375 -59.023438 1.734375 -58.15625 C 1.734375 -56.515625 2.796875 -55.648438 4.050781 -55.648438 C 5.015625 -55.648438 6.074219 -56.128906 6.75 -57.285156 C 9.066406 -61.242188 11.476562 -62.300781 14.273438 -62.300781 C 18.226562 -62.300781 20.542969 -59.121094 21.121094 -53.234375 C 23.339844 -30.765625 24.6875 -15.527344 27.484375 -3.277344 C 28.160156 -0.289062 29.800781 0.867188 31.730469 0.867188 C 33.464844 0.867188 34.71875 -0.191406 35.394531 -2.699219 C 41.375 -24.785156 49.667969 -48.703125 63.75 -61.722656 C 65.003906 -62.878906 65.582031 -64.039062 65.582031 -65.003906 C 65.582031 -66.738281 64.230469 -68.089844 62.398438 -68.089844 Z M 62.398438 -68.089844 "/></g></g></g><g fill="#000000" fill-opacity="1"><g transform="translate(157.218439, 228.091142)"><g><path d="M 47.546875 -22.472656 C 42.917969 -10.996094 39.832031 -5.59375 37.324219 -5.59375 C 35.296875 -5.59375 33.753906 -7.234375 33.753906 -12.828125 C 33.753906 -22.277344 35.105469 -33.5625 35.105469 -35.585938 C 35.105469 -37.613281 33.753906 -38.867188 32.117188 -38.867188 C 30.476562 -38.867188 29.222656 -37.613281 28.546875 -35.683594 C 26.039062 -37.515625 22.953125 -38.382812 20.445312 -38.382812 C 11.378906 -38.382812 2.316406 -29.222656 2.316406 -15.816406 C 2.316406 -5.496094 8.101562 0.386719 15.527344 0.386719 C 19.867188 0.386719 24.207031 -1.640625 28.066406 -7.523438 C 29.511719 -2.21875 32.597656 0.386719 36.9375 0.386719 C 42.53125 0.386719 46.871094 -5.980469 52.175781 -20.445312 C 52.367188 -20.929688 52.464844 -21.410156 52.464844 -21.796875 C 52.464844 -23.339844 51.308594 -24.398438 50.054688 -24.398438 C 49.089844 -24.398438 48.125 -23.820312 47.546875 -22.472656 Z M 16.492188 -5.59375 C 11.957031 -5.59375 8.679688 -8.871094 8.679688 -16.105469 C 8.679688 -26.136719 15.140625 -32.695312 21.601562 -32.695312 C 24.398438 -32.695312 27.195312 -31.152344 28.066406 -29.800781 C 28.257812 -14.660156 23.242188 -5.59375 16.492188 -5.59375 Z M 16.492188 -5.59375 "/></g></g></g><g fill="#000000" fill-opacity="1"><g transform="translate(201.577911, 228.091142)"><g><path d="M 29.898438 -22.472656 C 27.679688 -16.589844 22.277344 -6.074219 17.167969 -6.074219 C 13.40625 -6.074219 10.222656 -10.996094 9.546875 -20.640625 C 22.566406 -34.621094 27.679688 -46.582031 27.679688 -57.285156 C 27.679688 -63.941406 24.304688 -67.800781 19.480469 -67.800781 C 8.582031 -67.800781 2.988281 -52.945312 2.988281 -24.980469 C 2.988281 -8.101562 8.871094 -0.0976562 17.167969 -0.0976562 C 23.144531 -0.0976562 28.835938 -5.785156 34.527344 -20.445312 C 34.71875 -20.929688 34.816406 -21.410156 34.816406 -21.796875 C 34.816406 -23.433594 33.660156 -24.59375 32.40625 -24.59375 C 31.441406 -24.59375 30.476562 -23.917969 29.898438 -22.472656 Z M 18.613281 -61.820312 C 20.253906 -61.820312 21.3125 -60.566406 21.3125 -57.285156 C 21.3125 -48.703125 17.070312 -38.769531 9.355469 -28.933594 C 9.835938 -48.027344 13.597656 -61.820312 18.613281 -61.820312 Z M 18.613281 -61.820312 "/></g></g></g><g fill="#000000" fill-opacity="1"><g transform="translate(228.290033, 228.091142)"><g><path d="M 40.023438 -22.472656 C 35.492188 -10.996094 29.609375 -5.304688 20.542969 -5.304688 C 14.371094 -5.304688 9.355469 -9.546875 8.871094 -17.648438 C 11.378906 -16.296875 14.660156 -15.429688 18.226562 -15.429688 C 26.714844 -15.429688 32.210938 -20.929688 32.210938 -28.066406 C 32.210938 -34.527344 27.292969 -39.253906 19.867188 -39.253906 C 8.777344 -39.253906 2.410156 -29.222656 2.410156 -18.902344 C 2.410156 -6.074219 10.511719 0.675781 20.15625 0.675781 C 31.152344 0.675781 39.347656 -6.269531 44.652344 -20.445312 C 44.847656 -21.023438 44.941406 -21.507812 44.941406 -21.988281 C 44.941406 -23.628906 43.785156 -24.59375 42.628906 -24.59375 C 41.664062 -24.59375 40.601562 -23.917969 40.023438 -22.472656 Z M 19.867188 -33.273438 C 23.917969 -33.273438 25.941406 -30.765625 25.941406 -27.96875 C 25.941406 -24.015625 23.050781 -20.734375 17.84375 -20.734375 C 15.238281 -20.734375 11.957031 -21.410156 9.160156 -22.953125 C 10.414062 -28.546875 14.273438 -33.273438 19.867188 -33.273438 Z M 19.867188 -33.273438 "/></g></g></g><g fill="#000000" fill-opacity="1"><g transform="translate(265.12768, 228.091142)"><g><path d="M 43.207031 -22.472656 C 38.289062 -10.707031 35.78125 -5.980469 33.273438 -5.980469 C 31.824219 -5.980469 30.863281 -6.945312 30.863281 -9.257812 C 30.863281 -15.429688 32.40625 -24.882812 32.40625 -29.414062 C 32.40625 -34.71875 28.835938 -38.289062 23.53125 -38.289062 C 18.515625 -38.289062 13.792969 -35.394531 10.125 -29.898438 C 10.320312 -31.921875 10.511719 -33.753906 10.511719 -35.007812 C 10.511719 -37.128906 9.066406 -38.191406 7.523438 -38.191406 C 5.980469 -38.191406 4.339844 -37.035156 4.148438 -34.914062 C 3.472656 -27.292969 2.410156 -10.707031 2.410156 -3.085938 C 2.410156 -0.964844 3.953125 0.0976562 5.496094 0.0976562 C 7.136719 0.0976562 8.777344 -0.964844 8.777344 -3.085938 C 8.777344 -6.460938 8.871094 -10.125 9.066406 -13.886719 C 10.320312 -24.59375 16.78125 -32.40625 21.988281 -32.40625 C 24.59375 -32.40625 26.039062 -30.863281 26.039062 -27.871094 C 26.039062 -24.59375 24.496094 -15.816406 24.496094 -9.835938 C 24.496094 -3.183594 27.679688 0 32.308594 0 C 37.804688 0 41.566406 -4.628906 47.835938 -20.445312 C 48.027344 -20.929688 48.125 -21.410156 48.125 -21.796875 C 48.125 -23.339844 46.96875 -24.398438 45.714844 -24.398438 C 44.75 -24.398438 43.785156 -23.820312 43.207031 -22.472656 Z M 43.207031 -22.472656 "/></g></g></g><g fill="#000000" fill-opacity="1"><g transform="translate(305.147633, 228.091142)"><g><path d="M 29.320312 -22.472656 C 25.75 -13.40625 21.21875 -6.074219 15.429688 -6.074219 C 10.996094 -6.074219 8.777344 -9.066406 8.777344 -15.625 C 8.777344 -19.578125 9.546875 -26.328125 10.609375 -32.789062 C 10.898438 -34.332031 11.285156 -37.226562 11.765625 -40.699219 C 16.589844 -40.214844 19.964844 -39.542969 21.121094 -39.542969 C 22.664062 -39.542969 23.628906 -40.890625 23.628906 -42.242188 C 23.628906 -43.398438 22.953125 -44.460938 21.410156 -44.847656 C 18.421875 -45.617188 15.527344 -46.003906 12.539062 -46.292969 C 13.210938 -51.886719 13.886719 -57.382812 13.886719 -59.3125 C 13.886719 -61.242188 12.730469 -62.496094 10.898438 -62.496094 C 8.96875 -62.496094 7.617188 -61.335938 7.523438 -59.410156 C 7.328125 -55.164062 6.847656 -50.824219 6.269531 -46.679688 L 2.988281 -46.679688 C 0.773438 -46.679688 -0.289062 -45.328125 -0.289062 -43.976562 C -0.289062 -42.53125 0.773438 -41.179688 2.796875 -41.179688 L 5.496094 -41.179688 C 5.113281 -38.480469 4.726562 -35.972656 4.339844 -33.753906 C 3.277344 -27.003906 2.410156 -20.445312 2.410156 -16.105469 C 2.410156 -5.785156 6.75 -0.0976562 14.949219 -0.0976562 C 24.398438 -0.0976562 30.28125 -10.320312 33.949219 -20.445312 C 34.140625 -21.023438 34.238281 -21.507812 34.238281 -21.988281 C 34.238281 -23.628906 33.175781 -24.6875 31.921875 -24.6875 C 30.957031 -24.6875 29.898438 -24.015625 29.320312 -22.472656 Z M 29.320312 -22.472656 "/></g></g></g><g fill="#000000" fill-opacity="1"><g transform="translate(331.281153, 228.091142)"><g><path d="M 9.742188 -43.496094 C 11.863281 -43.496094 13.5 -45.136719 13.5 -47.257812 C 13.5 -49.378906 11.863281 -51.019531 9.742188 -51.019531 C 7.617188 -51.019531 5.980469 -49.378906 5.980469 -47.257812 C 5.980469 -45.136719 7.617188 -43.496094 9.742188 -43.496094 Z M 12.730469 0.386719 C 18.613281 0.386719 23.628906 -5.785156 29.027344 -20.445312 C 29.222656 -20.929688 29.320312 -21.410156 29.320312 -21.796875 C 29.320312 -23.433594 28.160156 -24.59375 26.90625 -24.59375 C 25.941406 -24.59375 24.980469 -23.917969 24.398438 -22.472656 C 19.675781 -10.800781 16.683594 -5.59375 13.5 -5.59375 C 11.1875 -5.59375 9.160156 -7.617188 9.160156 -14.464844 C 9.160156 -18.613281 9.644531 -23.726562 11.285156 -34.527344 C 11.667969 -37.035156 10.03125 -38.480469 8.390625 -38.480469 C 6.847656 -38.480469 5.304688 -37.417969 4.820312 -34.816406 C 3.859375 -29.414062 2.796875 -20.058594 2.796875 -15.046875 C 2.796875 -3.761719 7.136719 0.386719 12.730469 0.386719 Z M 12.730469 0.386719 "/></g></g></g><g fill="#000000" fill-opacity="1"><g transform="translate(352.496552, 228.091142)"><g><path d="M 43.207031 -22.472656 C 38.289062 -10.707031 35.78125 -5.980469 33.273438 -5.980469 C 31.824219 -5.980469 30.863281 -6.945312 30.863281 -9.257812 C 30.863281 -15.429688 32.40625 -24.882812 32.40625 -29.414062 C 32.40625 -34.71875 28.835938 -38.289062 23.53125 -38.289062 C 18.515625 -38.289062 13.792969 -35.394531 10.125 -29.898438 C 10.320312 -31.921875 10.511719 -33.753906 10.511719 -35.007812 C 10.511719 -37.128906 9.066406 -38.191406 7.523438 -38.191406 C 5.980469 -38.191406 4.339844 -37.035156 4.148438 -34.914062 C 3.472656 -27.292969 2.410156 -10.707031 2.410156 -3.085938 C 2.410156 -0.964844 3.953125 0.0976562 5.496094 0.0976562 C 7.136719 0.0976562 8.777344 -0.964844 8.777344 -3.085938 C 8.777344 -6.460938 8.871094 -10.125 9.066406 -13.886719 C 10.320312 -24.59375 16.78125 -32.40625 21.988281 -32.40625 C 24.59375 -32.40625 26.039062 -30.863281 26.039062 -27.871094 C 26.039062 -24.59375 24.496094 -15.816406 24.496094 -9.835938 C 24.496094 -3.183594 27.679688 0 32.308594 0 C 37.804688 0 41.566406 -4.628906 47.835938 -20.445312 C 48.027344 -20.929688 48.125 -21.410156 48.125 -21.796875 C 48.125 -23.339844 46.96875 -24.398438 45.714844 -24.398438 C 44.75 -24.398438 43.785156 -23.820312 43.207031 -22.472656 Z M 43.207031 -22.472656 "/></g></g></g><g fill="#000000" fill-opacity="1"><g transform="translate(392.516516, 228.091142)"><g><path d="M 40.023438 -22.472656 C 35.492188 -10.996094 29.609375 -5.304688 20.542969 -5.304688 C 14.371094 -5.304688 9.355469 -9.546875 8.871094 -17.648438 C 11.378906 -16.296875 14.660156 -15.429688 18.226562 -15.429688 C 26.714844 -15.429688 32.210938 -20.929688 32.210938 -28.066406 C 32.210938 -34.527344 27.292969 -39.253906 19.867188 -39.253906 C 8.777344 -39.253906 2.410156 -29.222656 2.410156 -18.902344 C 2.410156 -6.074219 10.511719 0.675781 20.15625 0.675781 C 31.152344 0.675781 39.347656 -6.269531 44.652344 -20.445312 C 44.847656 -21.023438 44.941406 -21.507812 44.941406 -21.988281 C 44.941406 -23.628906 43.785156 -24.59375 42.628906 -24.59375 C 41.664062 -24.59375 40.601562 -23.917969 40.023438 -22.472656 Z M 19.867188 -33.273438 C 23.917969 -33.273438 25.941406 -30.765625 25.941406 -27.96875 C 25.941406 -24.015625 23.050781 -20.734375 17.84375 -20.734375 C 15.238281 -20.734375 11.957031 -21.410156 9.160156 -22.953125 C 10.414062 -28.546875 14.273438 -33.273438 19.867188 -33.273438 Z M 19.867188 -33.273438 "/></g></g></g><g fill="#000000" fill-opacity="1"><g transform="translate(429.354152, 228.091142)"><g><path d="M 15.046875 -15.429688 C 16.492188 -15.429688 18.035156 -16.683594 18.035156 -19.191406 C 18.035156 -27.292969 21.410156 -31.632812 24.980469 -35.683594 C 29.027344 -40.214844 33.367188 -44.460938 33.367188 -53.332031 C 33.367188 -63.265625 25.363281 -68.28125 17.550781 -68.28125 C 9.933594 -68.28125 2.507812 -63.652344 2.507812 -54.394531 C 2.507812 -51.402344 3.664062 -47.835938 6.363281 -47.835938 C 7.8125 -47.835938 9.160156 -48.894531 9.160156 -50.824219 C 9.160156 -51.597656 8.777344 -52.753906 8.777344 -53.910156 C 8.777344 -59.503906 13.308594 -62.300781 17.84375 -62.300781 C 22.375 -62.300781 27.003906 -59.410156 27.003906 -53.332031 C 27.003906 -47.160156 24.015625 -43.6875 20.640625 -40.023438 C 16.589844 -35.394531 11.957031 -30.28125 11.957031 -19.191406 C 11.957031 -16.683594 13.5 -15.429688 15.046875 -15.429688 Z M 15.140625 0.964844 C 17.648438 0.964844 19.675781 -1.0625 19.675781 -3.664062 C 19.675781 -6.171875 17.648438 -8.199219 15.140625 -8.199219 C 12.539062 -8.199219 10.511719 -6.171875 10.511719 -3.664062 C 10.511719 -1.0625 12.539062 0.964844 15.140625 0.964844 Z M 15.140625 0.964844 "/></g></g></g></svg>