<svg xmlns="http://www.w3.org/2000/svg" xmlns:xlink="http://www.w3.org/1999/xlink" zoomAndPan="magnify" preserveAspectRatio="xMidYMid meet" version="1.0" viewBox="75.58 75.2 119.42 71.8"><defs><g/><clipPath id="175d2eada2"><path d="M 75.582031 75.195312 L 195 75.195312 L 195 147 L 75.582031 147 Z M 75.582031 75.195312 " clip-rule="nonzero"/></clipPath><clipPath id="79eb2153b8"><path d="M 101.082031 75.195312 L 169.175781 75.195312 C 175.9375 75.195312 182.425781 77.882812 187.207031 82.664062 C 191.988281 87.449219 194.675781 93.933594 194.675781 100.695312 L 194.675781 120.804688 C 194.675781 127.566406 191.988281 134.054688 187.207031 138.835938 C 182.425781 143.617188 175.9375 146.304688 169.175781 146.304688 L 101.082031 146.304688 C 94.316406 146.304688 87.832031 143.617188 83.050781 138.835938 C 78.265625 134.054688 75.582031 127.566406 75.582031 120.804688 L 75.582031 100.695312 C 75.582031 93.933594 78.265625 87.449219 83.050781 82.664062 C 87.832031 77.882812 94.316406 75.195312 101.082031 75.195312 " clip-rule="nonzero"/></clipPath><clipPath id="f1da519fa4"><path d="M 75.582031 75.429688 L 195 75.429688 L 195 147 L 75.582031 147 Z M 75.582031 75.429688 " clip-rule="nonzero"/></clipPath><clipPath id="858520d152"><path d="M 101.082031 75.429688 L 169.175781 75.429688 C 175.9375 75.429688 182.425781 78.117188 187.207031 82.898438 C 191.988281 87.679688 194.675781 94.167969 194.675781 100.929688 L 194.675781 121.039062 C 194.675781 127.800781 191.988281 134.289062 187.207031 139.070312 C 182.425781 143.851562 175.9375 146.539062 169.175781 146.539062 L 101.082031 146.539062 C 94.316406 146.539062 87.832031 143.851562 83.050781 139.070312 C 78.265625 134.289062 75.582031 127.800781 75.582031 121.039062 L 75.582031 100.929688 C 75.582031 94.167969 78.265625 87.679688 83.050781 82.898438 C 87.832031 78.117188 94.316406 75.429688 101.082031 75.429688 " clip-rule="nonzero"/></clipPath></defs><g clip-path="url(#175d2eada2)"><g clip-path="url(#79eb2153b8)"><path fill="#4b0302" d="M 75.582031 75.195312 L 194.550781 75.195312 L 194.550781 146.070312 L 75.582031 146.070312 Z M 75.582031 75.195312 " fill-opacity="1" fill-rule="nonzero"/></g></g><g fill="#ffffff" fill-opacity="1"><g transform="translate(104.971153, 123.946895)"><g><path d="M 13.6875 0 L 8.75 0 L 8.75 -9.8125 L 0.125 -24.984375 L 5.421875 -24.984375 L 11.125 -15.15625 L 11.546875 -15.15625 L 17.140625 -24.984375 L 22.3125 -24.984375 L 13.6875 -9.8125 Z M 13.6875 0 "/></g></g></g><g fill="#ffffff" fill-opacity="1"><g transform="translate(127.405108, 123.946895)"><g><path d="M 18.625 -8.359375 L 6.515625 -8.359375 C 6.648438 -6.710938 7.113281 -5.515625 7.90625 -4.765625 C 8.707031 -4.023438 9.796875 -3.65625 11.171875 -3.65625 C 12.253906 -3.65625 13.128906 -3.859375 13.796875 -4.265625 C 14.472656 -4.671875 15.019531 -5.28125 15.4375 -6.09375 L 15.796875 -6.09375 L 18.9375 -4.078125 C 18.320312 -2.765625 17.390625 -1.695312 16.140625 -0.875 C 14.898438 -0.0507812 13.242188 0.359375 11.171875 0.359375 C 9.222656 0.359375 7.539062 -0.0078125 6.125 -0.75 C 4.707031 -1.488281 3.613281 -2.585938 2.84375 -4.046875 C 2.070312 -5.515625 1.6875 -7.304688 1.6875 -9.421875 C 1.6875 -11.554688 2.09375 -13.359375 2.90625 -14.828125 C 3.71875 -16.296875 4.8125 -17.390625 6.1875 -18.109375 C 7.5625 -18.835938 9.109375 -19.203125 10.828125 -19.203125 C 13.492188 -19.203125 15.535156 -18.492188 16.953125 -17.078125 C 18.378906 -15.671875 19.09375 -13.601562 19.09375 -10.875 C 19.09375 -9.875 19.054688 -9.101562 18.984375 -8.5625 Z M 14.5625 -11.421875 C 14.519531 -12.847656 14.1875 -13.890625 13.5625 -14.546875 C 12.9375 -15.203125 12.023438 -15.53125 10.828125 -15.53125 C 8.441406 -15.53125 7.035156 -14.160156 6.609375 -11.421875 Z M 14.5625 -11.421875 "/></g></g></g><g fill="#ffffff" fill-opacity="1"><g transform="translate(147.891255, 123.946895)"><g><path d="M 8.8125 0.359375 C 7.53125 0.359375 6.351562 0.207031 5.28125 -0.09375 C 4.207031 -0.394531 3.289062 -0.8125 2.53125 -1.34375 C 1.78125 -1.875 1.222656 -2.476562 0.859375 -3.15625 L 3.484375 -6 L 3.84375 -6 C 4.46875 -5.15625 5.207031 -4.519531 6.0625 -4.09375 C 6.914062 -3.675781 7.847656 -3.46875 8.859375 -3.46875 C 9.773438 -3.46875 10.46875 -3.628906 10.9375 -3.953125 C 11.40625 -4.285156 11.640625 -4.765625 11.640625 -5.390625 C 11.640625 -5.859375 11.46875 -6.253906 11.125 -6.578125 C 10.789062 -6.910156 10.25 -7.164062 9.5 -7.34375 L 7 -7.953125 C 5.132812 -8.390625 3.769531 -9.066406 2.90625 -9.984375 C 2.050781 -10.898438 1.625 -12.066406 1.625 -13.484375 C 1.625 -14.660156 1.921875 -15.679688 2.515625 -16.546875 C 3.117188 -17.410156 3.960938 -18.066406 5.046875 -18.515625 C 6.140625 -18.972656 7.410156 -19.203125 8.859375 -19.203125 C 10.554688 -19.203125 11.960938 -18.957031 13.078125 -18.46875 C 14.191406 -17.976562 15.0625 -17.328125 15.6875 -16.515625 L 13.15625 -13.78125 L 12.8125 -13.78125 C 12.289062 -14.363281 11.703125 -14.789062 11.046875 -15.0625 C 10.390625 -15.34375 9.660156 -15.484375 8.859375 -15.484375 C 6.984375 -15.484375 6.046875 -14.898438 6.046875 -13.734375 C 6.046875 -13.242188 6.21875 -12.84375 6.5625 -12.53125 C 6.914062 -12.226562 7.53125 -11.984375 8.40625 -11.796875 L 10.734375 -11.28125 C 12.648438 -10.875 14.046875 -10.21875 14.921875 -9.3125 C 15.804688 -8.40625 16.25 -7.1875 16.25 -5.65625 C 16.25 -4.457031 15.953125 -3.398438 15.359375 -2.484375 C 14.765625 -1.578125 13.910156 -0.875 12.796875 -0.375 C 11.679688 0.113281 10.351562 0.359375 8.8125 0.359375 Z M 8.8125 0.359375 "/></g></g></g><g clip-path="url(#f1da519fa4)"><g clip-path="url(#858520d152)"><path fill="#4b0302" d="M 75.582031 75.429688 L 194.550781 75.429688 L 194.550781 146.304688 L 75.582031 146.304688 Z M 75.582031 75.429688 " fill-opacity="1" fill-rule="nonzero"/></g></g><g fill="#ffffff" fill-opacity="1"><g transform="translate(104.971153, 124.180422)"><g><path d="M 13.6875 0 L 8.75 0 L 8.75 -9.8125 L 0.125 -24.984375 L 5.421875 -24.984375 L 11.125 -15.15625 L 11.546875 -15.15625 L 17.140625 -24.984375 L 22.3125 -24.984375 L 13.6875 -9.8125 Z M 13.6875 0 "/></g></g></g><g fill="#ffffff" fill-opacity="1"><g transform="translate(127.405108, 124.180422)"><g><path d="M 18.625 -8.359375 L 6.515625 -8.359375 C 6.648438 -6.710938 7.113281 -5.515625 7.90625 -4.765625 C 8.707031 -4.023438 9.796875 -3.65625 11.171875 -3.65625 C 12.253906 -3.65625 13.128906 -3.859375 13.796875 -4.265625 C 14.472656 -4.671875 15.019531 -5.28125 15.4375 -6.09375 L 15.796875 -6.09375 L 18.9375 -4.078125 C 18.320312 -2.765625 17.390625 -1.695312 16.140625 -0.875 C 14.898438 -0.0507812 13.242188 0.359375 11.171875 0.359375 C 9.222656 0.359375 7.539062 -0.0078125 6.125 -0.75 C 4.707031 -1.488281 3.613281 -2.585938 2.84375 -4.046875 C 2.070312 -5.515625 1.6875 -7.304688 1.6875 -9.421875 C 1.6875 -11.554688 2.09375 -13.359375 2.90625 -14.828125 C 3.71875 -16.296875 4.8125 -17.390625 6.1875 -18.109375 C 7.5625 -18.835938 9.109375 -19.203125 10.828125 -19.203125 C 13.492188 -19.203125 15.535156 -18.492188 16.953125 -17.078125 C 18.378906 -15.671875 19.09375 -13.601562 19.09375 -10.875 C 19.09375 -9.875 19.054688 -9.101562 18.984375 -8.5625 Z M 14.5625 -11.421875 C 14.519531 -12.847656 14.1875 -13.890625 13.5625 -14.546875 C 12.9375 -15.203125 12.023438 -15.53125 10.828125 -15.53125 C 8.441406 -15.53125 7.035156 -14.160156 6.609375 -11.421875 Z M 14.5625 -11.421875 "/></g></g></g><g fill="#ffffff" fill-opacity="1"><g transform="translate(147.891255, 124.180422)"><g><path d="M 8.8125 0.359375 C 7.53125 0.359375 6.351562 0.207031 5.28125 -0.09375 C 4.207031 -0.394531 3.289062 -0.8125 2.53125 -1.34375 C 1.78125 -1.875 1.222656 -2.476562 0.859375 -3.15625 L 3.484375 -6 L 3.84375 -6 C 4.46875 -5.15625 5.207031 -4.519531 6.0625 -4.09375 C 6.914062 -3.675781 7.847656 -3.46875 8.859375 -3.46875 C 9.773438 -3.46875 10.46875 -3.628906 10.9375 -3.953125 C 11.40625 -4.285156 11.640625 -4.765625 11.640625 -5.390625 C 11.640625 -5.859375 11.46875 -6.253906 11.125 -6.578125 C 10.789062 -6.910156 10.25 -7.164062 9.5 -7.34375 L 7 -7.953125 C 5.132812 -8.390625 3.769531 -9.066406 2.90625 -9.984375 C 2.050781 -10.898438 1.625 -12.066406 1.625 -13.484375 C 1.625 -14.660156 1.921875 -15.679688 2.515625 -16.546875 C 3.117188 -17.410156 3.960938 -18.066406 5.046875 -18.515625 C 6.140625 -18.972656 7.410156 -19.203125 8.859375 -19.203125 C 10.554688 -19.203125 11.960938 -18.957031 13.078125 -18.46875 C 14.191406 -17.976562 15.0625 -17.328125 15.6875 -16.515625 L 13.15625 -13.78125 L 12.8125 -13.78125 C 12.289062 -14.363281 11.703125 -14.789062 11.046875 -15.0625 C 10.390625 -15.34375 9.660156 -15.484375 8.859375 -15.484375 C 6.984375 -15.484375 6.046875 -14.898438 6.046875 -13.734375 C 6.046875 -13.242188 6.21875 -12.84375 6.5625 -12.53125 C 6.914062 -12.226562 7.53125 -11.984375 8.40625 -11.796875 L 10.734375 -11.28125 C 12.648438 -10.875 14.046875 -10.21875 14.921875 -9.3125 C 15.804688 -8.40625 16.25 -7.1875 16.25 -5.65625 C 16.25 -4.457031 15.953125 -3.398438 15.359375 -2.484375 C 14.765625 -1.578125 13.910156 -0.875 12.796875 -0.375 C 11.679688 0.113281 10.351562 0.359375 8.8125 0.359375 Z M 8.8125 0.359375 "/></g></g></g></svg>